<svg xmlns="http://www.w3.org/2000/svg" xmlns:xlink="http://www.w3.org/1999/xlink" width="500" zoomAndPan="magnify" viewBox="0 0 375 374.999991" height="500" preserveAspectRatio="xMidYMid meet" version="1.0"><defs><g/><clipPath id="1d55fd68c7"><path d="M 117.851562 87.628906 L 257.285156 87.628906 L 257.285156 237.03125 L 117.851562 237.03125 Z M 117.851562 87.628906 " clip-rule="nonzero"/></clipPath><clipPath id="f9625c038c"><path d="M 118 87.03125 L 257 87.03125 L 257 234 L 118 234 Z M 118 87.03125 " clip-rule="nonzero"/></clipPath><clipPath id="0095d4b191"><path d="M 117.851562 87.03125 L 257.285156 87.03125 L 257.285156 204.929688 L 117.851562 204.929688 Z M 117.851562 87.03125 " clip-rule="nonzero"/></clipPath></defs><g clip-path="url(#1d55fd68c7)"><path fill="#000000" d="M 257.285156 204.886719 L 257.285156 208.457031 L 245.953125 208.457031 L 245.953125 211.433594 L 231.65625 211.433594 L 231.65625 212.03125 L 232.257812 212.03125 L 232.257812 215.601562 L 228.683594 215.601562 L 228.683594 219.171875 L 217.953125 219.171875 L 217.953125 226.316406 L 203.65625 226.316406 L 203.65625 233.460938 L 196.503906 233.460938 L 196.503906 232.859375 L 195.90625 232.859375 L 195.90625 233.460938 L 196.503906 233.460938 L 196.503906 237.03125 L 178.628906 237.03125 L 178.628906 233.460938 L 179.230469 233.460938 L 179.230469 232.859375 L 178.628906 232.859375 L 178.628906 233.460938 L 171.480469 233.460938 L 171.480469 226.316406 L 157.179688 226.316406 L 157.179688 219.171875 L 146.453125 219.171875 L 146.453125 215.601562 L 142.878906 215.601562 L 142.878906 212.03125 L 143.480469 212.03125 L 143.480469 211.433594 L 129.183594 211.433594 L 129.183594 208.457031 L 117.851562 208.457031 L 117.851562 204.886719 L 118.453125 204.886719 L 118.453125 201.917969 L 122.03125 201.917969 L 122.03125 201.316406 L 121.429688 201.316406 L 121.429688 197.746094 L 125.003906 197.746094 L 125.003906 198.34375 L 125.605469 198.34375 L 125.605469 194.773438 L 154.203125 194.773438 L 154.203125 194.175781 L 153.605469 194.175781 L 153.605469 187.03125 L 150.03125 187.03125 L 150.03125 183.460938 L 142.878906 183.460938 L 142.878906 140.601562 L 143.480469 140.601562 L 143.480469 134.058594 L 147.054688 134.058594 L 147.054688 130.488281 L 150.628906 130.488281 L 150.628906 97.144531 L 147.054688 97.144531 L 147.054688 93.574219 L 143.480469 93.574219 L 143.480469 90 L 139.90625 90 L 139.90625 87.628906 L 149.429688 87.628906 L 149.429688 91.199219 L 153.003906 91.199219 L 153.003906 94.773438 L 156.582031 94.773438 L 156.582031 98.34375 L 160.15625 98.34375 L 160.15625 105.488281 L 163.726562 105.488281 L 163.726562 116.199219 L 172.078125 116.199219 L 172.078125 112.628906 L 182.804688 112.628906 L 182.804688 101.917969 L 192.332031 101.917969 L 192.332031 112.628906 L 203.054688 112.628906 L 203.054688 116.199219 L 211.40625 116.199219 L 211.40625 105.488281 L 214.980469 105.488281 L 214.980469 94.773438 L 222.132812 94.773438 L 222.132812 87.628906 L 235.230469 87.628906 L 235.230469 90 L 231.65625 90 L 231.65625 93.574219 L 228.082031 93.574219 L 228.082031 100.71875 L 224.503906 100.71875 L 224.503906 130.488281 L 228.082031 130.488281 L 228.082031 134.058594 L 231.65625 134.058594 L 231.65625 140.601562 L 232.257812 140.601562 L 232.257812 183.460938 L 221.53125 183.460938 L 221.53125 194.175781 L 220.933594 194.175781 L 220.933594 194.773438 L 249.53125 194.773438 L 249.53125 198.34375 L 250.132812 198.34375 L 250.132812 197.746094 L 253.707031 197.746094 L 253.707031 201.316406 L 253.105469 201.316406 L 253.105469 201.917969 L 256.683594 201.917969 L 256.683594 204.886719 L 257.285156 204.886719 " fill-opacity="1" fill-rule="nonzero"/></g><g clip-path="url(#f9625c038c)"><path fill="#ffbd59" d="M 256.683594 201.917969 L 256.683594 204.289062 L 218.554688 204.289062 L 218.554688 194.773438 L 249.53125 194.773438 L 249.53125 201.917969 Z M 156.582031 204.289062 L 118.453125 204.289062 L 118.453125 201.917969 L 125.605469 201.917969 L 125.605469 194.773438 L 156.582031 194.773438 Z M 168.507812 215 L 168.507812 219.773438 L 163.726562 219.773438 L 163.726562 215 Z M 167.304688 212.03125 L 167.90625 212.03125 L 167.90625 208.457031 L 160.753906 208.457031 L 160.753906 204.886719 L 157.179688 204.886719 L 157.179688 208.457031 L 128.582031 208.457031 L 128.582031 212.03125 L 161.355469 212.03125 L 161.355469 222.144531 L 170.878906 222.144531 L 170.878906 212.632812 L 167.304688 212.632812 Z M 193.53125 187.628906 L 188.753906 187.628906 L 188.753906 182.859375 L 193.53125 182.859375 Z M 193.53125 194.773438 L 188.753906 194.773438 L 188.753906 190 L 193.53125 190 Z M 193.53125 201.917969 L 188.753906 201.917969 L 188.753906 197.144531 L 193.53125 197.144531 Z M 185.179688 176.917969 L 185.179688 173.34375 L 182.804688 173.34375 L 182.804688 176.917969 L 179.230469 176.917969 L 179.230469 180.488281 L 170.878906 180.488281 L 170.878906 176.917969 L 167.304688 176.917969 L 167.304688 172.144531 L 167.90625 172.144531 L 167.90625 172.742188 L 172.078125 172.742188 L 172.078125 175.71875 L 178.03125 175.71875 L 178.03125 172.742188 L 182.203125 172.742188 L 182.203125 169.171875 L 181.601562 169.171875 L 181.601562 165.003906 L 193.53125 165.003906 L 193.53125 169.171875 L 192.933594 169.171875 L 192.933594 172.742188 L 197.105469 172.742188 L 197.105469 175.71875 L 203.054688 175.71875 L 203.054688 172.742188 L 207.230469 172.742188 L 207.230469 172.144531 L 207.832031 172.144531 L 207.832031 176.917969 L 204.257812 176.917969 L 204.257812 180.488281 L 195.90625 180.488281 L 195.90625 176.917969 L 192.332031 176.917969 L 192.332031 173.34375 L 189.957031 173.34375 L 189.957031 176.917969 Z M 186.382812 187.628906 L 181.601562 187.628906 L 181.601562 182.859375 L 186.382812 182.859375 Z M 186.382812 194.773438 L 181.601562 194.773438 L 181.601562 190 L 186.382812 190 Z M 186.382812 201.917969 L 181.601562 201.917969 L 181.601562 197.144531 L 186.382812 197.144531 Z M 174.457031 165.601562 L 175.058594 165.601562 L 175.058594 151.316406 L 174.457031 151.316406 L 174.457031 150.714844 L 179.230469 150.714844 L 179.230469 166.203125 L 174.457031 166.203125 Z M 163.726562 122.144531 L 167.304688 122.144531 L 167.304688 118.570312 L 174.457031 118.570312 L 174.457031 115 L 179.230469 115 L 179.230469 119.769531 L 175.65625 119.769531 L 175.65625 123.34375 L 168.507812 123.34375 L 168.507812 126.914062 L 164.929688 126.914062 L 164.929688 130.488281 L 161.355469 130.488281 L 161.355469 137.027344 L 157.179688 137.027344 L 157.179688 147.746094 L 157.78125 147.746094 L 157.78125 155.484375 L 157.179688 155.484375 L 157.179688 154.886719 L 153.605469 154.886719 L 153.605469 129.886719 L 157.179688 129.886719 L 157.179688 129.289062 L 160.15625 129.289062 L 160.15625 126.3125 L 160.753906 126.3125 L 160.753906 125.714844 L 163.726562 125.714844 Z M 185.179688 150.714844 L 185.78125 150.714844 L 185.78125 151.316406 L 189.355469 151.316406 L 189.355469 150.714844 L 189.957031 150.714844 L 189.957031 155.484375 L 189.355469 155.484375 L 189.355469 154.886719 L 185.78125 154.886719 L 185.78125 155.484375 L 185.179688 155.484375 Z M 195.90625 150.714844 L 200.679688 150.714844 L 200.679688 151.316406 L 200.078125 151.316406 L 200.078125 165.601562 L 200.679688 165.601562 L 200.679688 166.203125 L 195.90625 166.203125 Z M 195.90625 115 L 200.679688 115 L 200.679688 118.570312 L 207.832031 118.570312 L 207.832031 122.144531 L 211.40625 122.144531 L 211.40625 125.714844 L 214.382812 125.714844 L 214.382812 126.3125 L 214.980469 126.3125 L 214.980469 129.289062 L 217.953125 129.289062 L 217.953125 129.886719 L 221.53125 129.886719 L 221.53125 154.886719 L 217.953125 154.886719 L 217.953125 155.484375 L 217.355469 155.484375 L 217.355469 147.746094 L 217.953125 147.746094 L 217.953125 137.027344 L 213.78125 137.027344 L 213.78125 130.488281 L 210.207031 130.488281 L 210.207031 126.914062 L 206.628906 126.914062 L 206.628906 123.34375 L 199.480469 123.34375 L 199.480469 119.769531 L 195.90625 119.769531 Z M 195.90625 204.289062 L 199.480469 204.289062 L 199.480469 197.144531 L 204.257812 197.144531 L 204.257812 204.289062 L 210.207031 204.289062 L 210.207031 200.71875 L 213.78125 200.71875 L 213.78125 190 L 217.355469 190 L 217.355469 165.601562 L 217.953125 165.601562 L 217.953125 162.03125 L 221.53125 162.03125 L 221.53125 158.460938 L 225.105469 158.460938 L 225.105469 157.859375 L 225.707031 157.859375 L 225.707031 161.429688 L 228.082031 161.429688 L 228.082031 154.886719 L 228.683594 154.886719 L 228.683594 140 L 231.65625 140 L 231.65625 137.027344 L 232.257812 137.027344 L 232.257812 133.457031 L 228.683594 133.457031 L 228.683594 129.886719 L 225.105469 129.886719 L 225.105469 126.3125 L 224.503906 126.3125 L 224.503906 108.457031 L 225.105469 108.457031 L 225.105469 101.316406 L 228.683594 101.316406 L 228.683594 94.171875 L 232.257812 94.171875 L 232.257812 90.597656 L 231.65625 90.597656 L 231.65625 90 L 235.230469 90 L 235.230469 87.628906 L 222.132812 87.628906 L 222.132812 94.171875 L 221.53125 94.171875 L 221.53125 94.773438 L 214.980469 94.773438 L 214.980469 105.488281 L 211.40625 105.488281 L 211.40625 116.199219 L 203.054688 116.199219 L 203.054688 112.628906 L 192.332031 112.628906 L 192.332031 101.917969 L 182.804688 101.917969 L 182.804688 112.628906 L 172.078125 112.628906 L 172.078125 116.199219 L 163.726562 116.199219 L 163.726562 105.488281 L 160.15625 105.488281 L 160.15625 98.34375 L 157.179688 98.34375 L 157.179688 97.742188 L 156.582031 97.742188 L 156.582031 94.773438 L 153.605469 94.773438 L 153.605469 94.171875 L 153.003906 94.171875 L 153.003906 91.199219 L 150.03125 91.199219 L 150.03125 90.597656 L 149.429688 90.597656 L 149.429688 87.628906 L 139.90625 87.628906 L 139.90625 90 L 143.480469 90 L 143.480469 90.597656 L 142.878906 90.597656 L 142.878906 94.171875 L 146.453125 94.171875 L 146.453125 97.742188 L 150.03125 97.742188 L 150.03125 108.457031 L 150.628906 108.457031 L 150.628906 122.746094 L 150.03125 122.746094 L 150.03125 129.886719 L 146.453125 129.886719 L 146.453125 133.457031 L 142.878906 133.457031 L 142.878906 137.027344 L 143.480469 137.027344 L 143.480469 140 L 146.453125 140 L 146.453125 158.460938 L 147.054688 158.460938 L 147.054688 161.429688 L 150.628906 161.429688 L 150.628906 166.203125 L 147.054688 166.203125 L 147.054688 168.574219 L 150.628906 168.574219 L 150.628906 173.34375 L 147.054688 173.34375 L 147.054688 175.71875 L 150.628906 175.71875 L 150.628906 179.285156 L 154.203125 179.285156 L 154.203125 182.859375 L 157.78125 182.859375 L 157.78125 190 L 161.355469 190 L 161.355469 200.71875 L 164.929688 200.71875 L 164.929688 204.289062 L 170.878906 204.289062 L 170.878906 197.144531 L 175.65625 197.144531 L 175.65625 204.289062 L 179.230469 204.289062 L 179.230469 207.859375 L 186.382812 207.859375 L 186.382812 211.433594 L 188.753906 211.433594 L 188.753906 207.859375 L 195.90625 207.859375 Z M 224.503906 168.574219 L 224.503906 173.34375 L 228.082031 173.34375 L 228.082031 175.71875 L 224.503906 175.71875 L 224.503906 179.285156 L 222.132812 179.285156 L 222.132812 162.628906 L 224.503906 162.628906 L 224.503906 166.203125 L 228.082031 166.203125 L 228.082031 168.574219 Z M 196.503906 215.601562 L 200.078125 215.601562 L 200.078125 229.890625 L 196.503906 229.890625 L 196.503906 233.460938 L 189.355469 233.460938 L 189.355469 215.601562 L 192.933594 215.601562 L 192.933594 226.316406 L 196.503906 226.316406 Z M 182.203125 215.601562 L 185.78125 215.601562 L 185.78125 233.460938 L 178.628906 233.460938 L 178.628906 229.890625 L 175.058594 229.890625 L 175.058594 215.601562 L 178.628906 215.601562 L 178.628906 226.316406 L 182.203125 226.316406 Z M 211.40625 219.773438 L 206.628906 219.773438 L 206.628906 215 L 211.40625 215 Z M 239.40625 208.457031 L 214.382812 208.457031 L 214.382812 204.886719 L 210.808594 204.886719 L 210.808594 208.457031 L 207.230469 208.457031 L 207.230469 212.03125 L 207.832031 212.03125 L 207.832031 212.632812 L 204.257812 212.632812 L 204.257812 222.144531 L 213.78125 222.144531 L 213.78125 212.03125 L 246.554688 212.03125 L 246.554688 208.457031 L 239.40625 208.457031 " fill-opacity="1" fill-rule="nonzero"/></g><path fill="#ffffff" d="M 146.453125 158.460938 L 146.453125 162.03125 L 150.03125 162.03125 L 150.03125 158.460938 Z M 150.03125 165.601562 L 146.453125 165.601562 L 146.453125 169.171875 L 150.03125 169.171875 L 150.03125 172.742188 L 146.453125 172.742188 L 146.453125 176.316406 L 150.03125 176.316406 L 150.03125 179.886719 L 153.605469 179.886719 L 153.605469 162.03125 L 150.03125 162.03125 Z M 160.753906 162.03125 L 164.328125 162.03125 L 164.328125 154.886719 L 160.753906 154.886719 L 160.753906 147.746094 L 157.179688 147.746094 L 157.179688 158.460938 L 160.753906 158.460938 Z M 164.328125 183.460938 L 160.753906 183.460938 L 160.753906 187.03125 L 164.328125 187.03125 Z M 164.328125 179.886719 L 167.90625 179.886719 L 167.90625 204.886719 L 164.328125 204.886719 L 164.328125 201.316406 L 160.753906 201.316406 L 160.753906 194.175781 L 164.328125 194.175781 L 164.328125 190.601562 L 157.179688 190.601562 L 157.179688 165.601562 L 160.753906 165.601562 L 160.753906 172.742188 L 164.328125 172.742188 Z M 171.480469 151.316406 L 175.058594 151.316406 L 175.058594 147.746094 L 178.628906 147.746094 L 178.628906 119.171875 L 175.058594 119.171875 L 175.058594 122.746094 L 167.90625 122.746094 L 167.90625 126.3125 L 164.328125 126.3125 L 164.328125 129.886719 L 160.753906 129.886719 L 160.753906 137.027344 L 164.328125 137.027344 L 164.328125 147.746094 L 167.90625 147.746094 L 167.90625 151.316406 Z M 171.480469 172.742188 L 171.480469 176.316406 L 178.628906 176.316406 L 178.628906 172.742188 Z M 178.628906 154.886719 L 178.628906 165.601562 L 196.503906 165.601562 L 196.503906 151.316406 L 192.933594 151.316406 L 192.933594 147.746094 L 189.355469 147.746094 L 189.355469 158.460938 L 185.78125 158.460938 L 185.78125 147.746094 L 182.203125 147.746094 L 182.203125 151.316406 L 178.628906 151.316406 Z M 178.628906 197.746094 L 178.628906 201.316406 L 182.203125 201.316406 L 182.203125 197.746094 Z M 189.355469 119.171875 L 192.933594 119.171875 L 192.933594 101.316406 L 182.203125 101.316406 L 182.203125 119.171875 Z M 196.503906 201.316406 L 196.503906 197.746094 L 192.933594 197.746094 L 192.933594 201.316406 Z M 196.503906 172.742188 L 196.503906 176.316406 L 203.65625 176.316406 L 203.65625 172.742188 Z M 192.933594 187.03125 L 192.933594 183.460938 L 189.355469 183.460938 L 189.355469 187.03125 Z M 185.78125 187.03125 L 185.78125 183.460938 L 182.203125 183.460938 L 182.203125 187.03125 Z M 200.078125 179.886719 L 203.65625 179.886719 L 203.65625 187.03125 L 200.078125 187.03125 L 200.078125 190.601562 L 196.503906 190.601562 L 196.503906 194.175781 L 192.933594 194.175781 L 192.933594 190.601562 L 189.355469 190.601562 L 189.355469 194.175781 L 192.933594 194.175781 L 192.933594 197.746094 L 189.355469 197.746094 L 189.355469 201.316406 L 192.933594 201.316406 L 192.933594 204.886719 L 189.355469 204.886719 L 189.355469 212.03125 L 185.78125 212.03125 L 185.78125 204.886719 L 182.203125 204.886719 L 182.203125 201.316406 L 185.78125 201.316406 L 185.78125 197.746094 L 182.203125 197.746094 L 182.203125 194.175781 L 185.78125 194.175781 L 185.78125 190.601562 L 182.203125 190.601562 L 182.203125 194.175781 L 178.628906 194.175781 L 178.628906 190.601562 L 175.058594 190.601562 L 175.058594 187.03125 L 171.480469 187.03125 L 171.480469 179.886719 L 175.058594 179.886719 L 175.058594 183.460938 L 178.628906 183.460938 L 178.628906 179.886719 L 196.503906 179.886719 L 196.503906 183.460938 L 200.078125 183.460938 Z M 207.230469 147.746094 L 210.808594 147.746094 L 210.808594 137.027344 L 214.382812 137.027344 L 214.382812 129.886719 L 210.808594 129.886719 L 210.808594 126.3125 L 207.230469 126.3125 L 207.230469 122.746094 L 200.078125 122.746094 L 200.078125 119.171875 L 196.503906 119.171875 L 196.503906 147.746094 L 200.078125 147.746094 L 200.078125 151.316406 L 207.230469 151.316406 Z M 214.382812 151.316406 L 214.382812 154.886719 L 210.808594 154.886719 L 210.808594 162.03125 L 214.382812 162.03125 L 214.382812 158.460938 L 217.953125 158.460938 L 217.953125 147.746094 L 214.382812 147.746094 Z M 214.382812 183.460938 L 210.808594 183.460938 L 210.808594 187.03125 L 214.382812 187.03125 Z M 214.382812 165.601562 L 217.953125 165.601562 L 217.953125 190.601562 L 210.808594 190.601562 L 210.808594 194.175781 L 214.382812 194.175781 L 214.382812 201.316406 L 210.808594 201.316406 L 210.808594 204.886719 L 207.230469 204.886719 L 207.230469 176.316406 L 210.808594 176.316406 L 210.808594 172.742188 L 214.382812 172.742188 Z M 221.53125 165.601562 L 221.53125 179.886719 L 225.105469 179.886719 L 225.105469 176.316406 L 228.683594 176.316406 L 228.683594 172.742188 L 225.105469 172.742188 L 225.105469 169.171875 L 228.683594 169.171875 L 228.683594 165.601562 L 225.105469 165.601562 L 225.105469 162.03125 L 221.53125 162.03125 Z M 228.683594 154.886719 L 228.683594 162.03125 L 225.105469 162.03125 L 225.105469 154.886719 L 228.683594 154.886719 " fill-opacity="1" fill-rule="nonzero"/><path fill="#513784" d="M 132.15625 201.316406 L 135.730469 201.316406 L 135.730469 197.746094 L 132.15625 197.746094 Z M 139.304688 201.316406 L 142.878906 201.316406 L 142.878906 197.746094 L 139.304688 197.746094 Z M 146.453125 137.027344 L 142.878906 137.027344 L 142.878906 140.601562 L 146.453125 140.601562 Z M 146.453125 201.316406 L 150.03125 201.316406 L 150.03125 197.746094 L 146.453125 197.746094 Z M 153.605469 119.171875 L 153.605469 108.457031 L 150.03125 108.457031 L 150.03125 122.746094 L 153.605469 122.746094 Z M 150.03125 158.460938 L 150.03125 162.03125 L 153.605469 162.03125 L 153.605469 158.460938 Z M 153.605469 165.601562 L 153.605469 183.460938 L 157.179688 183.460938 L 157.179688 162.03125 L 153.605469 162.03125 Z M 185.78125 122.746094 L 185.78125 126.3125 L 182.203125 126.3125 L 182.203125 144.171875 L 192.933594 144.171875 L 192.933594 126.3125 L 189.355469 126.3125 L 189.355469 122.746094 Z M 167.90625 122.746094 L 164.328125 122.746094 L 164.328125 115.601562 L 171.480469 115.601562 L 171.480469 112.03125 L 182.203125 112.03125 L 182.203125 119.171875 L 192.933594 119.171875 L 192.933594 112.03125 L 203.65625 112.03125 L 203.65625 115.601562 L 210.808594 115.601562 L 210.808594 122.746094 L 207.230469 122.746094 L 207.230469 119.171875 L 200.078125 119.171875 L 200.078125 115.601562 L 196.503906 115.601562 L 196.503906 147.746094 L 200.078125 147.746094 L 200.078125 151.316406 L 192.933594 151.316406 L 192.933594 147.746094 L 182.203125 147.746094 L 182.203125 151.316406 L 175.058594 151.316406 L 175.058594 147.746094 L 178.628906 147.746094 L 178.628906 115.601562 L 175.058594 115.601562 L 175.058594 119.171875 L 167.90625 119.171875 Z M 167.90625 215.601562 L 164.328125 215.601562 L 164.328125 219.171875 L 167.90625 219.171875 Z M 167.90625 212.03125 L 171.480469 212.03125 L 171.480469 222.746094 L 160.753906 222.746094 L 160.753906 212.03125 Z M 171.480469 179.886719 L 171.480469 176.316406 L 167.90625 176.316406 L 167.90625 169.171875 L 182.203125 169.171875 L 182.203125 165.601562 L 167.90625 165.601562 L 167.90625 158.460938 L 164.328125 158.460938 L 164.328125 165.601562 L 160.753906 165.601562 L 160.753906 172.742188 L 164.328125 172.742188 L 164.328125 179.886719 L 167.90625 179.886719 L 167.90625 187.03125 L 171.480469 187.03125 Z M 175.058594 183.460938 L 178.628906 183.460938 L 178.628906 179.886719 L 175.058594 179.886719 Z M 182.203125 201.316406 L 178.628906 201.316406 L 178.628906 197.746094 L 182.203125 197.746094 L 182.203125 194.175781 L 178.628906 194.175781 L 178.628906 190.601562 L 175.058594 190.601562 L 175.058594 187.03125 L 171.480469 187.03125 L 171.480469 197.746094 L 175.058594 197.746094 L 175.058594 204.886719 L 178.628906 204.886719 L 178.628906 208.457031 L 185.78125 208.457031 L 185.78125 204.886719 L 182.203125 204.886719 Z M 192.933594 179.886719 L 196.503906 179.886719 L 196.503906 176.316406 L 192.933594 176.316406 L 192.933594 172.742188 L 189.355469 172.742188 L 189.355469 176.316406 L 185.78125 176.316406 L 185.78125 172.742188 L 182.203125 172.742188 L 182.203125 176.316406 L 178.628906 176.316406 L 178.628906 179.886719 Z M 200.078125 183.460938 L 200.078125 179.886719 L 196.503906 179.886719 L 196.503906 183.460938 Z M 200.078125 190.601562 L 196.503906 190.601562 L 196.503906 194.175781 L 192.933594 194.175781 L 192.933594 197.746094 L 196.503906 197.746094 L 196.503906 201.316406 L 192.933594 201.316406 L 192.933594 204.886719 L 189.355469 204.886719 L 189.355469 208.457031 L 196.503906 208.457031 L 196.503906 204.886719 L 200.078125 204.886719 L 200.078125 197.746094 L 203.65625 197.746094 L 203.65625 187.03125 L 200.078125 187.03125 Z M 203.65625 179.886719 L 203.65625 187.03125 L 207.230469 187.03125 L 207.230469 176.316406 L 203.65625 176.316406 Z M 210.808594 162.03125 L 210.808594 158.460938 L 207.230469 158.460938 L 207.230469 165.601562 L 192.933594 165.601562 L 192.933594 169.171875 L 207.230469 169.171875 L 207.230469 176.316406 L 210.808594 176.316406 L 210.808594 172.742188 L 214.382812 172.742188 L 214.382812 165.601562 L 210.808594 165.601562 Z M 210.808594 215.601562 L 207.230469 215.601562 L 207.230469 219.171875 L 210.808594 219.171875 Z M 210.808594 212.03125 L 214.382812 212.03125 L 214.382812 222.746094 L 203.65625 222.746094 L 203.65625 212.03125 Z M 225.105469 122.746094 L 225.105469 108.457031 L 221.53125 108.457031 L 221.53125 126.3125 L 225.105469 126.3125 Z M 225.105469 201.316406 L 228.683594 201.316406 L 228.683594 197.746094 L 225.105469 197.746094 Z M 232.257812 137.027344 L 228.683594 137.027344 L 228.683594 140.601562 L 232.257812 140.601562 Z M 232.257812 201.316406 L 235.832031 201.316406 L 235.832031 197.746094 L 232.257812 197.746094 Z M 242.980469 197.746094 L 242.980469 201.316406 L 239.40625 201.316406 L 239.40625 197.746094 L 242.980469 197.746094 " fill-opacity="1" fill-rule="nonzero"/><g clip-path="url(#0095d4b191)"><path fill="#ff1616" d="M 150.03125 87.03125 L 150.03125 90.597656 L 139.304688 90.597656 L 139.304688 87.03125 Z M 153.605469 90.597656 L 153.605469 94.171875 L 150.03125 94.171875 L 150.03125 90.597656 Z M 146.453125 201.316406 L 146.453125 197.746094 L 150.03125 197.746094 L 150.03125 201.316406 Z M 139.304688 201.316406 L 139.304688 197.746094 L 142.878906 197.746094 L 142.878906 201.316406 Z M 132.15625 201.316406 L 132.15625 197.746094 L 135.730469 197.746094 L 135.730469 201.316406 Z M 150.03125 194.175781 L 125.003906 194.175781 L 125.003906 201.316406 L 117.851562 201.316406 L 117.851562 204.886719 L 157.179688 204.886719 L 157.179688 194.175781 Z M 157.179688 94.171875 L 157.179688 97.742188 L 153.605469 97.742188 L 153.605469 94.171875 Z M 160.753906 104.886719 L 164.328125 104.886719 L 164.328125 126.3125 L 160.753906 126.3125 L 160.753906 108.457031 L 157.179688 108.457031 L 157.179688 97.742188 L 160.753906 97.742188 Z M 157.179688 126.3125 L 160.753906 126.3125 L 160.753906 129.886719 L 157.179688 129.886719 Z M 160.753906 183.460938 L 164.328125 183.460938 L 164.328125 187.03125 L 160.753906 187.03125 Z M 160.753906 190.601562 L 164.328125 190.601562 L 164.328125 194.175781 L 160.753906 194.175781 Z M 167.90625 187.03125 L 171.480469 187.03125 L 171.480469 204.886719 L 167.90625 204.886719 Z M 189.355469 126.3125 L 185.78125 126.3125 L 185.78125 122.746094 L 189.355469 122.746094 Z M 189.355469 126.3125 L 192.933594 126.3125 L 192.933594 144.171875 L 182.203125 144.171875 L 182.203125 126.3125 L 185.78125 126.3125 L 185.78125 133.457031 L 189.355469 133.457031 Z M 203.65625 187.03125 L 207.230469 187.03125 L 207.230469 204.886719 L 203.65625 204.886719 Z M 214.382812 122.746094 L 214.382812 126.3125 L 210.808594 126.3125 L 210.808594 104.886719 L 214.382812 104.886719 L 214.382812 94.171875 L 221.53125 94.171875 L 221.53125 97.742188 L 217.953125 97.742188 L 217.953125 108.457031 L 214.382812 108.457031 Z M 210.808594 183.460938 L 214.382812 183.460938 L 214.382812 187.03125 L 210.808594 187.03125 Z M 210.808594 190.601562 L 214.382812 190.601562 L 214.382812 194.175781 L 210.808594 194.175781 Z M 214.382812 129.886719 L 214.382812 126.3125 L 217.953125 126.3125 L 217.953125 129.886719 Z M 225.105469 94.171875 L 221.53125 94.171875 L 221.53125 87.03125 L 235.832031 87.03125 L 235.832031 90.597656 L 225.105469 90.597656 Z M 239.40625 201.316406 L 239.40625 197.746094 L 242.980469 197.746094 L 242.980469 201.316406 Z M 232.257812 201.316406 L 232.257812 197.746094 L 235.832031 197.746094 L 235.832031 201.316406 Z M 225.105469 201.316406 L 225.105469 197.746094 L 228.683594 197.746094 L 228.683594 201.316406 Z M 253.707031 201.316406 L 250.132812 201.316406 L 250.132812 194.175781 L 217.953125 194.175781 L 217.953125 204.886719 L 257.285156 204.886719 L 257.285156 201.316406 L 253.707031 201.316406 " fill-opacity="1" fill-rule="nonzero"/></g><g fill="#090909" fill-opacity="1"><g transform="translate(133.839839, 262.72932)"><g><path d="M 14.984375 0 L 14.171875 -2.71875 L 7.421875 -2.71875 L 6.609375 0 L 0.28125 0 L 7.3125 -19.265625 L 14.5 -19.265625 L 21.53125 0 Z M 8.703125 -7.03125 L 12.875 -7.03125 L 10.859375 -13.890625 L 10.75 -13.890625 Z M 8.703125 -7.03125 "/></g></g></g><g fill="#090909" fill-opacity="1"><g transform="translate(155.620863, 262.72932)"><g><path d="M 15.84375 0 L 7.75 -9.359375 L 7.75 0 L 2.078125 0 L 2.078125 -19.265625 L 7.46875 -19.265625 L 15.5625 -9.765625 L 15.5625 -19.265625 L 21.25 -19.265625 L 21.25 0 Z M 15.84375 0 "/></g></g></g><g fill="#090909" fill-opacity="1"><g transform="translate(178.941677, 262.72932)"><g><path d="M 11.765625 -19.59375 C 13.609375 -19.59375 15.265625 -19.3125 16.734375 -18.75 C 18.210938 -18.195312 19.382812 -17.375 20.25 -16.28125 C 21.125 -15.1875 21.5625 -13.859375 21.5625 -12.296875 L 15.65625 -12.296875 C 15.65625 -13.097656 15.300781 -13.742188 14.59375 -14.234375 C 13.882812 -14.734375 13.023438 -14.984375 12.015625 -14.984375 C 10.554688 -14.984375 9.453125 -14.59375 8.703125 -13.8125 C 7.960938 -13.039062 7.59375 -11.945312 7.59375 -10.53125 L 7.59375 -8.734375 C 7.59375 -7.316406 7.960938 -6.21875 8.703125 -5.4375 C 9.453125 -4.664062 10.554688 -4.28125 12.015625 -4.28125 C 13.023438 -4.28125 13.882812 -4.519531 14.59375 -5 C 15.300781 -5.476562 15.65625 -6.085938 15.65625 -6.828125 L 11.28125 -6.828125 L 11.28125 -10.75 L 21.5625 -10.75 L 21.5625 0 L 18.375 0 L 17.75 -1.90625 C 16 -0.40625 13.703125 0.34375 10.859375 0.34375 C 7.671875 0.34375 5.273438 -0.488281 3.671875 -2.15625 C 2.066406 -3.832031 1.265625 -6.320312 1.265625 -9.625 C 1.265625 -12.894531 2.171875 -15.375 3.984375 -17.0625 C 5.804688 -18.75 8.398438 -19.59375 11.765625 -19.59375 Z M 11.765625 -19.59375 "/></g></g></g><g fill="#090909" fill-opacity="1"><g transform="translate(202.262492, 262.72932)"><g><path d="M 2.078125 -19.265625 L 18.734375 -19.265625 L 18.734375 -14.640625 L 8.265625 -14.640625 L 8.265625 -11.984375 L 17.21875 -11.984375 L 17.21875 -7.5625 L 8.265625 -7.5625 L 8.265625 -4.625 L 18.921875 -4.625 L 18.921875 0 L 2.078125 0 Z M 2.078125 -19.265625 "/></g></g></g><g fill="#090909" fill-opacity="1"><g transform="translate(222.475732, 262.72932)"><g><path d="M 2.078125 -19.265625 L 8.265625 -19.265625 L 8.265625 -4.921875 L 18.140625 -4.921875 L 18.140625 0 L 2.078125 0 Z M 2.078125 -19.265625 "/></g></g></g><g fill="#090909" fill-opacity="1"><g transform="translate(111.374214, 281.879336)"><g><path d="M 14.515625 -9.09375 L 11.5 0 L 9.71875 0 L 7.46875 -6.734375 L 5.171875 0 L 3.359375 0 L 0.34375 -9.09375 L 2.109375 -9.09375 L 4.375 -2.1875 L 6.71875 -9.09375 L 8.28125 -9.09375 L 10.578125 -2.140625 L 12.90625 -9.09375 Z M 14.515625 -9.09375 "/></g></g></g><g fill="#090909" fill-opacity="1"><g transform="translate(128.841651, 281.879336)"><g><path d="M 8.046875 -1.421875 L 8.046875 0 L 1.21875 0 L 1.21875 -9.09375 L 7.859375 -9.09375 L 7.859375 -7.6875 L 2.90625 -7.6875 L 2.90625 -5.3125 L 7.3125 -5.3125 L 7.3125 -3.921875 L 2.90625 -3.921875 L 2.90625 -1.421875 Z M 8.046875 -1.421875 "/></g></g></g><g fill="#090909" fill-opacity="1"><g transform="translate(140.148974, 281.879336)"><g><path d="M 7.671875 -4.734375 C 8.171875 -4.566406 8.566406 -4.289062 8.859375 -3.90625 C 9.160156 -3.519531 9.3125 -3.039062 9.3125 -2.46875 C 9.3125 -1.675781 9.003906 -1.066406 8.390625 -0.640625 C 7.785156 -0.210938 6.90625 0 5.75 0 L 1.21875 0 L 1.21875 -9.09375 L 5.484375 -9.09375 C 6.554688 -9.09375 7.382812 -8.882812 7.96875 -8.46875 C 8.550781 -8.050781 8.84375 -7.472656 8.84375 -6.734375 C 8.84375 -6.285156 8.738281 -5.882812 8.53125 -5.53125 C 8.320312 -5.1875 8.035156 -4.921875 7.671875 -4.734375 Z M 2.90625 -7.78125 L 2.90625 -5.265625 L 5.296875 -5.265625 C 5.890625 -5.265625 6.34375 -5.367188 6.65625 -5.578125 C 6.976562 -5.796875 7.140625 -6.109375 7.140625 -6.515625 C 7.140625 -6.929688 6.976562 -7.242188 6.65625 -7.453125 C 6.34375 -7.671875 5.890625 -7.78125 5.296875 -7.78125 Z M 5.640625 -1.328125 C 6.953125 -1.328125 7.609375 -1.765625 7.609375 -2.640625 C 7.609375 -3.515625 6.953125 -3.953125 5.640625 -3.953125 L 2.90625 -3.953125 L 2.90625 -1.328125 Z M 5.640625 -1.328125 "/></g></g></g><g fill="#090909" fill-opacity="1"><g transform="translate(152.63894, 281.879336)"><g/></g></g><g fill="#090909" fill-opacity="1"><g transform="translate(158.825833, 281.879336)"><g><path d="M 1.21875 -9.09375 L 5.203125 -9.09375 C 6.171875 -9.09375 7.03125 -8.90625 7.78125 -8.53125 C 8.539062 -8.15625 9.128906 -7.625 9.546875 -6.9375 C 9.960938 -6.25 10.171875 -5.453125 10.171875 -4.546875 C 10.171875 -3.648438 9.960938 -2.851562 9.546875 -2.15625 C 9.128906 -1.46875 8.539062 -0.9375 7.78125 -0.5625 C 7.03125 -0.1875 6.171875 0 5.203125 0 L 1.21875 0 Z M 5.125 -1.4375 C 5.789062 -1.4375 6.375 -1.5625 6.875 -1.8125 C 7.382812 -2.070312 7.773438 -2.4375 8.046875 -2.90625 C 8.328125 -3.375 8.46875 -3.921875 8.46875 -4.546875 C 8.46875 -5.171875 8.328125 -5.71875 8.046875 -6.1875 C 7.773438 -6.664062 7.382812 -7.03125 6.875 -7.28125 C 6.375 -7.539062 5.789062 -7.671875 5.125 -7.671875 L 2.90625 -7.671875 L 2.90625 -1.4375 Z M 5.125 -1.4375 "/></g></g></g><g fill="#090909" fill-opacity="1"><g transform="translate(172.160534, 281.879336)"><g><path d="M 8.046875 -1.421875 L 8.046875 0 L 1.21875 0 L 1.21875 -9.09375 L 7.859375 -9.09375 L 7.859375 -7.6875 L 2.90625 -7.6875 L 2.90625 -5.3125 L 7.3125 -5.3125 L 7.3125 -3.921875 L 2.90625 -3.921875 L 2.90625 -1.421875 Z M 8.046875 -1.421875 "/></g></g></g><g fill="#090909" fill-opacity="1"><g transform="translate(183.467857, 281.879336)"><g><path d="M 9.546875 -9.09375 L 5.578125 0 L 3.90625 0 L -0.0625 -9.09375 L 1.765625 -9.09375 L 4.796875 -2.078125 L 7.859375 -9.09375 Z M 9.546875 -9.09375 "/></g></g></g><g fill="#090909" fill-opacity="1"><g transform="translate(195.541945, 281.879336)"><g><path d="M 8.046875 -1.421875 L 8.046875 0 L 1.21875 0 L 1.21875 -9.09375 L 7.859375 -9.09375 L 7.859375 -7.6875 L 2.90625 -7.6875 L 2.90625 -5.3125 L 7.3125 -5.3125 L 7.3125 -3.921875 L 2.90625 -3.921875 L 2.90625 -1.421875 Z M 8.046875 -1.421875 "/></g></g></g><g fill="#090909" fill-opacity="1"><g transform="translate(206.849268, 281.879336)"><g><path d="M 1.21875 -9.09375 L 2.90625 -9.09375 L 2.90625 -1.4375 L 7.671875 -1.4375 L 7.671875 0 L 1.21875 0 Z M 1.21875 -9.09375 "/></g></g></g><g fill="#090909" fill-opacity="1"><g transform="translate(217.233876, 281.879336)"><g><path d="M 5.46875 0.125 C 4.539062 0.125 3.703125 -0.0703125 2.953125 -0.46875 C 2.210938 -0.875 1.628906 -1.429688 1.203125 -2.140625 C 0.785156 -2.859375 0.578125 -3.660156 0.578125 -4.546875 C 0.578125 -5.429688 0.785156 -6.226562 1.203125 -6.9375 C 1.628906 -7.65625 2.210938 -8.21875 2.953125 -8.625 C 3.703125 -9.03125 4.539062 -9.234375 5.46875 -9.234375 C 6.394531 -9.234375 7.226562 -9.03125 7.96875 -8.625 C 8.71875 -8.21875 9.304688 -7.660156 9.734375 -6.953125 C 10.160156 -6.242188 10.375 -5.441406 10.375 -4.546875 C 10.375 -3.660156 10.160156 -2.859375 9.734375 -2.140625 C 9.304688 -1.429688 8.71875 -0.875 7.96875 -0.46875 C 7.226562 -0.0703125 6.394531 0.125 5.46875 0.125 Z M 5.46875 -1.359375 C 6.082031 -1.359375 6.628906 -1.492188 7.109375 -1.765625 C 7.597656 -2.035156 7.976562 -2.414062 8.25 -2.90625 C 8.53125 -3.394531 8.671875 -3.941406 8.671875 -4.546875 C 8.671875 -5.148438 8.53125 -5.695312 8.25 -6.1875 C 7.976562 -6.675781 7.597656 -7.054688 7.109375 -7.328125 C 6.628906 -7.609375 6.082031 -7.75 5.46875 -7.75 C 4.863281 -7.75 4.316406 -7.609375 3.828125 -7.328125 C 3.347656 -7.054688 2.96875 -6.675781 2.6875 -6.1875 C 2.414062 -5.695312 2.28125 -5.148438 2.28125 -4.546875 C 2.28125 -3.941406 2.414062 -3.394531 2.6875 -2.90625 C 2.96875 -2.414062 3.347656 -2.035156 3.828125 -1.765625 C 4.316406 -1.492188 4.863281 -1.359375 5.46875 -1.359375 Z M 5.46875 -1.359375 "/></g></g></g><g fill="#090909" fill-opacity="1"><g transform="translate(230.776516, 281.879336)"><g><path d="M 4.96875 -9.09375 C 5.757812 -9.09375 6.445312 -8.960938 7.03125 -8.703125 C 7.613281 -8.441406 8.0625 -8.066406 8.375 -7.578125 C 8.6875 -7.097656 8.84375 -6.523438 8.84375 -5.859375 C 8.84375 -5.203125 8.6875 -4.628906 8.375 -4.140625 C 8.0625 -3.648438 7.613281 -3.273438 7.03125 -3.015625 C 6.445312 -2.753906 5.757812 -2.625 4.96875 -2.625 L 2.90625 -2.625 L 2.90625 0 L 1.21875 0 L 1.21875 -9.09375 Z M 4.890625 -4.0625 C 5.628906 -4.0625 6.1875 -4.210938 6.5625 -4.515625 C 6.945312 -4.828125 7.140625 -5.273438 7.140625 -5.859375 C 7.140625 -6.441406 6.945312 -6.890625 6.5625 -7.203125 C 6.1875 -7.515625 5.628906 -7.671875 4.890625 -7.671875 L 2.90625 -7.671875 L 2.90625 -4.0625 Z M 4.890625 -4.0625 "/></g></g></g><g fill="#090909" fill-opacity="1"><g transform="translate(242.811614, 281.879336)"><g><path d="M 8.046875 -1.421875 L 8.046875 0 L 1.21875 0 L 1.21875 -9.09375 L 7.859375 -9.09375 L 7.859375 -7.6875 L 2.90625 -7.6875 L 2.90625 -5.3125 L 7.3125 -5.3125 L 7.3125 -3.921875 L 2.90625 -3.921875 L 2.90625 -1.421875 Z M 8.046875 -1.421875 "/></g></g></g><g fill="#090909" fill-opacity="1"><g transform="translate(254.118937, 281.879336)"><g><path d="M 7.171875 0 L 5.3125 -2.671875 C 5.238281 -2.660156 5.125 -2.65625 4.96875 -2.65625 L 2.90625 -2.65625 L 2.90625 0 L 1.21875 0 L 1.21875 -9.09375 L 4.96875 -9.09375 C 5.757812 -9.09375 6.445312 -8.960938 7.03125 -8.703125 C 7.613281 -8.441406 8.0625 -8.066406 8.375 -7.578125 C 8.6875 -7.097656 8.84375 -6.523438 8.84375 -5.859375 C 8.84375 -5.179688 8.675781 -4.59375 8.34375 -4.09375 C 8.007812 -3.601562 7.53125 -3.234375 6.90625 -2.984375 L 9 0 Z M 7.140625 -5.859375 C 7.140625 -6.441406 6.945312 -6.890625 6.5625 -7.203125 C 6.1875 -7.515625 5.628906 -7.671875 4.890625 -7.671875 L 2.90625 -7.671875 L 2.90625 -4.046875 L 4.890625 -4.046875 C 5.628906 -4.046875 6.1875 -4.203125 6.5625 -4.515625 C 6.945312 -4.828125 7.140625 -5.273438 7.140625 -5.859375 Z M 7.140625 -5.859375 "/></g></g></g></svg>