<svg xmlns="http://www.w3.org/2000/svg" xmlns:xlink="http://www.w3.org/1999/xlink" width="500" zoomAndPan="magnify" viewBox="0 0 375 374.999991" height="500" preserveAspectRatio="xMidYMid meet" version="1.0"><defs><g/><clipPath id="785f319bae"><path d="M 104 73.152344 L 269 73.152344 L 269 218 L 104 218 Z M 104 73.152344 " clip-rule="nonzero"/></clipPath><clipPath id="cfe43231e4"><path d="M 72.449219 128 L 302.699219 128 L 302.699219 220.152344 L 72.449219 220.152344 Z M 72.449219 128 " clip-rule="nonzero"/></clipPath></defs><g clip-path="url(#785f319bae)"><path fill="#ff5757" d="M 249.539062 125.589844 C 247.042969 125.464844 244.40625 125.238281 242.394531 123.8125 C 241.839844 123.339844 241.242188 122.929688 240.601562 122.582031 C 239.941406 122.335938 239.261719 122.21875 238.558594 122.226562 C 235.628906 122.113281 232.535156 122.304688 229.953125 120.996094 C 229.167969 120.515625 228.351562 120.105469 227.496094 119.765625 C 226.261719 119.507812 225.03125 119.527344 223.808594 119.828125 C 213.214844 121.585938 202.335938 122.839844 191.765625 120.988281 C 190.550781 120.832031 189.390625 120.480469 188.289062 119.9375 C 187.554688 119.539062 186.917969 118.992188 186.179688 118.609375 C 184.832031 117.914062 183.257812 117.808594 181.746094 117.625 C 177.378906 117.097656 173.226562 115.84375 169.296875 113.863281 C 168.140625 113.363281 167.15625 112.628906 166.347656 111.660156 C 165.953125 111.171875 165.734375 110.613281 165.6875 109.984375 C 165.644531 109.355469 165.785156 108.773438 166.109375 108.234375 C 163.984375 108.195312 161.949219 107.761719 159.996094 106.925781 C 176.042969 103.394531 192.25 102.371094 208.609375 103.847656 C 209.703125 103.949219 210.871094 104.046875 211.855469 103.554688 C 212.390625 103.289062 212.820312 102.863281 213.339844 102.5625 C 214.304688 102.078125 215.328125 101.816406 216.410156 101.78125 C 219.882812 101.433594 223.367188 101.191406 226.863281 101.050781 C 227.90625 101.007812 229.042969 100.933594 229.8125 100.25 C 230.167969 99.855469 230.492188 99.433594 230.785156 98.984375 C 232.113281 97.3125 234.566406 97.046875 236.742188 96.917969 L 243.390625 96.519531 C 242.152344 95.3125 240.875 94.144531 239.558594 93.019531 C 238.246094 91.890625 236.898438 90.808594 235.515625 89.765625 C 234.132812 88.726562 232.71875 87.726562 231.273438 86.777344 C 229.832031 85.824219 228.355469 84.917969 226.855469 84.058594 C 225.351562 83.199219 223.824219 82.386719 222.273438 81.625 C 220.71875 80.859375 219.144531 80.144531 217.546875 79.484375 C 215.949219 78.820312 214.328125 78.207031 212.695312 77.644531 C 211.058594 77.082031 209.402344 76.570312 207.734375 76.113281 C 206.066406 75.65625 204.386719 75.25 202.691406 74.898438 C 200.996094 74.546875 199.292969 74.25 197.578125 74.003906 C 195.867188 73.757812 194.148438 73.570312 192.421875 73.433594 C 190.699219 73.296875 188.96875 73.214844 187.238281 73.1875 C 185.511719 73.160156 183.78125 73.1875 182.050781 73.269531 C 180.324219 73.347656 178.597656 73.484375 176.878906 73.675781 C 175.160156 73.867188 173.449219 74.109375 171.742188 74.40625 C 170.039062 74.707031 168.34375 75.058594 166.664062 75.460938 C 164.980469 75.867188 163.3125 76.324219 161.660156 76.835938 C 160.003906 77.34375 158.367188 77.90625 156.75 78.519531 C 155.132812 79.132812 153.535156 79.792969 151.957031 80.507812 C 150.382812 81.222656 148.828125 81.984375 147.300781 82.796875 C 145.773438 83.609375 144.269531 84.464844 142.796875 85.371094 C 141.320312 86.277344 139.878906 87.230469 138.464844 88.226562 C 137.046875 89.222656 135.667969 90.265625 134.316406 91.347656 C 132.96875 92.433594 131.65625 93.558594 130.378906 94.726562 C 129.097656 95.894531 127.859375 97.097656 126.65625 98.34375 C 125.453125 99.589844 124.292969 100.871094 123.171875 102.1875 C 122.050781 103.507812 120.96875 104.859375 119.933594 106.246094 C 118.898438 107.632812 117.90625 109.050781 116.957031 110.5 C 116.011719 111.949219 115.109375 113.425781 114.257812 114.929688 C 113.402344 116.4375 112.597656 117.96875 111.839844 119.523438 C 111.082031 121.078125 110.375 122.660156 109.714844 124.257812 C 109.058594 125.859375 108.449219 127.480469 107.894531 129.121094 C 108.625 129.144531 109.316406 129.316406 109.976562 129.628906 C 111.570312 130.34375 112.972656 131.476562 114.644531 131.949219 C 119.5625 133.339844 124.976562 128.617188 129.640625 130.71875 C 130.804688 131.195312 131.625 132.015625 132.101562 133.179688 C 132.339844 133.832031 132.421875 134.574219 132.894531 135.078125 C 133.335938 135.4375 133.820312 135.726562 134.34375 135.945312 C 134.542969 136.074219 134.722656 136.222656 134.890625 136.386719 C 135.054688 136.554688 135.203125 136.738281 135.328125 136.933594 C 135.457031 137.132812 135.5625 137.339844 135.644531 137.558594 C 135.726562 137.78125 135.785156 138.007812 135.820312 138.238281 C 135.859375 138.472656 135.867188 138.703125 135.855469 138.9375 C 135.839844 139.171875 135.800781 139.402344 135.738281 139.628906 C 135.675781 139.855469 135.589844 140.074219 135.484375 140.28125 C 135.375 140.492188 135.246094 140.6875 135.09375 140.867188 C 135.710938 142.097656 137.554688 141.980469 138.820312 141.414062 C 140.085938 140.847656 141.476562 140.035156 142.773438 140.535156 C 143.328125 140.742188 143.8125 141.191406 144.402344 141.230469 C 145.066406 141.179688 145.632812 140.914062 146.09375 140.429688 C 147.554688 139.25 149.167969 138.117188 151.011719 137.851562 C 152.855469 137.589844 155.019531 138.46875 155.652344 140.226562 C 155.738281 140.753906 155.957031 141.21875 156.304688 141.625 C 156.867188 142.078125 157.691406 141.796875 158.398438 141.625 C 161.222656 140.953125 164.042969 142.535156 166.914062 142.902344 C 170.324219 143.34375 173.675781 142.070312 177.019531 141.167969 C 180.929688 140.109375 185.25 139.585938 188.910156 141.335938 C 190.136719 141.949219 191.316406 142.773438 192.675781 142.847656 C 194.347656 142.9375 195.824219 141.863281 197.203125 140.910156 C 199.925781 139.007812 203.183594 137.34375 206.421875 137.996094 C 209.660156 138.644531 212.230469 142.75 210.28125 145.4375 C 213.796875 147.03125 217.421875 148.308594 221.15625 149.269531 C 225.460938 150.378906 229.9375 151.050781 234.171875 152.484375 C 231.445312 152.320312 228.734375 152.464844 226.039062 152.914062 C 226.726562 153.566406 226.476562 154.808594 225.75 155.429688 C 224.953125 156.007812 224.0625 156.292969 223.082031 156.285156 C 221.160156 156.4375 219.246094 156.367188 217.339844 156.070312 C 215.558594 161.09375 208.363281 163.167969 204.179688 159.859375 C 203.375 159.242188 202.652344 158.417969 201.675781 158.113281 C 200.632812 157.890625 199.609375 157.960938 198.601562 158.316406 C 194.207031 159.457031 189.671875 160.71875 185.175781 160.042969 C 180.683594 159.367188 176.535156 156.820312 172.050781 157.25 C 168.167969 157.625 164.886719 160.171875 161.320312 161.757812 C 159.855469 162.398438 158.339844 162.882812 156.773438 163.207031 C 155.210938 163.53125 153.628906 163.6875 152.027344 163.683594 C 150.429688 163.675781 148.851562 163.503906 147.289062 163.167969 C 145.726562 162.832031 144.214844 162.335938 142.753906 161.683594 C 140.441406 163.40625 138.035156 165.179688 135.210938 165.8125 C 132.390625 166.445312 129.0625 165.609375 127.582031 163.113281 C 126.207031 160.761719 126.882812 157.796875 127.582031 155.164062 L 123.464844 157.816406 C 122.449219 159.183594 121.441406 160.554688 120.433594 161.917969 C 119.425781 163.285156 118.429688 164.601562 116.953125 165.3125 C 115.480469 166.027344 113.433594 165.835938 112.554688 164.457031 C 109.761719 165.035156 106.878906 165.523438 104.074219 165.160156 C 106.640625 187.390625 117.066406 204.433594 133.699219 217.667969 L 240.046875 217.824219 C 241.636719 216.4375 243.171875 214.996094 244.648438 213.496094 C 246.128906 211.996094 247.546875 210.4375 248.90625 208.828125 C 250.265625 207.21875 251.5625 205.558594 252.796875 203.851562 C 254.027344 202.140625 255.195312 200.386719 256.292969 198.589844 C 257.390625 196.789062 258.417969 194.953125 259.375 193.074219 C 260.332031 191.199219 261.21875 189.285156 262.027344 187.339844 C 262.839844 185.398438 263.574219 183.421875 264.234375 181.421875 C 264.894531 179.421875 265.476562 177.398438 265.984375 175.351562 C 266.488281 173.304688 266.914062 171.242188 267.261719 169.164062 C 267.609375 167.085938 267.875 164.996094 268.0625 162.894531 C 268.25 160.796875 268.355469 158.695312 268.382812 156.585938 C 268.410156 154.480469 268.355469 152.375 268.21875 150.269531 C 268.085938 148.167969 267.867188 146.070312 267.574219 143.984375 C 267.277344 141.898438 266.902344 139.824219 266.449219 137.769531 C 265.996094 135.710938 265.460938 133.671875 264.851562 131.65625 C 264.242188 129.636719 263.554688 127.648438 262.792969 125.683594 C 258.367188 125.828125 253.949219 125.800781 249.539062 125.589844 Z M 249.539062 125.589844 " fill-opacity="1" fill-rule="nonzero"/></g><g clip-path="url(#cfe43231e4)"><path fill="#090909" d="M 301.902344 219.632812 C 302.023438 219.308594 302.171875 218.996094 302.34375 218.695312 C 302.40625 218.566406 302.488281 218.4375 302.558594 218.308594 C 302.40625 218.289062 302.25 218.28125 302.09375 218.277344 C 301.851562 218.277344 301.476562 218.445312 301.390625 218.347656 C 301.144531 218.027344 300.90625 218.125 300.585938 218.273438 C 300.679688 217.902344 300.746094 217.609375 300.828125 217.300781 L 301.140625 217.300781 C 301.269531 216.683594 301.804688 216.746094 302.203125 216.59375 C 302.203125 216.4375 302.234375 216.304688 302.246094 216.113281 L 301.410156 216.113281 C 301.585938 215.757812 301.78125 215.414062 301.996094 215.078125 C 302.242188 214.730469 302.265625 214.507812 301.730469 214.386719 C 301.902344 214.199219 302.011719 214.003906 302.171875 213.929688 C 302.492188 213.78125 302.460938 213.589844 302.351562 213.316406 L 300.703125 213.789062 C 300.804688 213.574219 300.925781 213.367188 301.058594 213.171875 C 301.144531 213.011719 301.175781 212.824219 301.25 212.65625 C 301.3125 212.539062 301.378906 212.425781 301.460938 212.320312 C 301.328125 212.238281 301.1875 212.167969 301.042969 212.117188 C 300.855469 212.082031 300.671875 212.0625 300.480469 212.054688 C 300.480469 212.054688 300.445312 212.023438 300.414062 212.003906 L 300.726562 211.800781 C 300.511719 211.65625 300.390625 211.574219 300.25 211.46875 L 300.925781 210.917969 C 301.003906 210.359375 300.832031 209.894531 300.410156 209.519531 L 299.179688 210.136719 L 298.835938 209.878906 L 299.027344 209.328125 C 299.257812 209.277344 299.441406 209.15625 299.578125 208.960938 C 299.632812 208.875 299.53125 208.679688 299.503906 208.5625 C 299.59375 208.316406 299.703125 208.082031 299.824219 207.855469 C 299.886719 207.785156 299.933594 207.710938 299.960938 207.621094 C 299.992188 207.535156 300 207.445312 299.988281 207.355469 C 299.976562 207.265625 299.945312 207.179688 299.898438 207.101562 C 299.847656 207.023438 299.785156 206.960938 299.707031 206.914062 L 299.867188 206.507812 L 299.75 206.414062 C 299.4375 206.660156 299.136719 206.914062 298.851562 207.140625 L 298.464844 206.464844 C 298.699219 205.988281 299.386719 206.164062 299.445312 205.652344 C 299.246094 205.503906 299.011719 205.417969 298.976562 205.28125 C 298.9375 205.148438 299.074219 204.925781 299.125 204.777344 C 298.957031 204.691406 298.695312 204.648438 298.652344 204.527344 C 298.578125 204.230469 298.542969 203.933594 298.546875 203.628906 L 298.835938 203.425781 C 298.675781 203.0625 298.492188 202.988281 298.21875 203.289062 C 298.144531 203.378906 298.050781 203.4375 297.9375 203.460938 C 297.699219 203.476562 297.457031 203.476562 297.21875 203.460938 C 296.847656 203.15625 297.46875 202.910156 297.367188 202.570312 L 296.996094 202.519531 L 297.613281 201.132812 L 296.90625 200.816406 C 296.808594 200.988281 296.699219 201.144531 296.574219 201.292969 C 296.535156 201.328125 296.296875 201.242188 296.296875 201.210938 C 296.296875 200.976562 296.339844 200.742188 296.371094 200.449219 L 296.179688 200.214844 C 296.277344 200.054688 296.472656 199.863281 296.429688 199.765625 C 296.226562 199.269531 296.660156 199.152344 296.976562 198.886719 L 296.660156 198.757812 L 297.164062 198.039062 L 296.992188 197.910156 C 296.769531 198.15625 296.546875 198.414062 296.316406 198.652344 C 296.253906 198.714844 296.105469 198.789062 296.074219 198.765625 C 295.992188 198.6875 295.945312 198.597656 295.925781 198.488281 C 295.914062 198.375 295.914062 198.265625 295.925781 198.15625 L 295.761719 198.117188 L 295.320312 199.28125 L 295.238281 199.242188 L 295.378906 198.75 L 295.011719 198.75 C 295.234375 198.386719 295.460938 198.011719 295.695312 197.644531 L 295.582031 197.539062 L 295.097656 197.71875 C 295.097656 197.460938 295.097656 197.238281 295.058594 196.871094 L 294.335938 197.761719 C 294.242188 197.550781 294.1875 197.410156 294.125 197.28125 C 294.949219 197.023438 294.949219 196.207031 295.355469 195.542969 L 294.476562 195.730469 L 294.476562 195.410156 L 294.382812 195.367188 C 294.207031 195.65625 294.023438 195.945312 293.824219 196.253906 C 293.792969 195.855469 293.761719 195.496094 293.734375 195.097656 L 293.976562 194.921875 C 293.578125 194.433594 294.335938 194.230469 294.207031 193.726562 L 293.40625 194.296875 C 293.359375 193.683594 293.320312 193.070312 293.277344 192.496094 L 293.050781 192.496094 C 293.007812 193.054688 292.957031 193.609375 292.914062 194.121094 L 292.449219 194.121094 C 292.558594 194.355469 292.667969 194.59375 292.773438 194.828125 L 292.410156 194.914062 L 292.753906 195.34375 L 292.390625 195.425781 L 292.390625 196.15625 L 292.324219 196.15625 C 292.25 196.003906 292.183594 195.84375 292.109375 195.683594 L 291.378906 196.296875 L 291.886719 196.617188 C 291.679688 196.65625 291.472656 196.714844 291.273438 196.789062 C 291.128906 196.84375 291.015625 196.9375 290.941406 197.074219 C 290.90625 197.144531 291.046875 197.292969 291.113281 197.410156 L 291.355469 197.835938 L 291.261719 197.882812 L 290.605469 197.496094 L 290.53125 197.601562 C 290.78125 197.964844 291.035156 198.328125 291.339844 198.757812 C 290.847656 198.785156 290.398438 198.652344 290 198.359375 L 289.570312 198.867188 L 289.945312 199.054688 C 289.859375 199.300781 289.65625 199.589844 289.730469 199.746094 C 290.003906 200.304688 290.308594 200.84375 290.648438 201.367188 C 290.210938 201.539062 290.371094 201.828125 290.46875 202.132812 L 289.785156 201.679688 C 289.578125 202.214844 290.234375 202.582031 289.941406 203.070312 L 289.277344 202.761719 C 289.335938 202.675781 289.398438 202.589844 289.453125 202.496094 C 289.203125 202.34375 288.9375 202.214844 288.660156 202.117188 C 288.308594 202.050781 287.949219 202.011719 287.589844 201.992188 C 287.546875 201.992188 287.511719 201.9375 287.460938 201.898438 L 288.078125 201.511719 L 287.160156 200.898438 L 288.457031 199.839844 C 288.527344 199.339844 288.476562 198.855469 288.300781 198.378906 C 288.125 197.90625 287.847656 197.503906 287.46875 197.171875 L 285.15625 198.316406 C 284.910156 198.125 284.652344 197.941406 284.5 197.824219 C 284.628906 197.453125 284.746094 197.117188 284.867188 196.777344 C 285.304688 196.671875 285.652344 196.4375 285.917969 196.078125 C 286.03125 195.902344 285.832031 195.527344 285.785156 195.308594 C 285.953125 194.839844 286.160156 194.390625 286.398438 193.953125 C 286.867188 193.230469 286.828125 192.679688 286.175781 192.160156 L 286.480469 191.382812 L 286.25 191.199219 L 284.542969 192.589844 C 284.230469 192.054688 283.984375 191.617188 283.796875 191.296875 C 284.242188 190.394531 285.558594 190.71875 285.644531 189.746094 C 285.269531 189.472656 284.820312 189.304688 284.757812 189.046875 C 284.695312 188.789062 284.941406 188.359375 285.035156 188.074219 C 284.714844 187.921875 284.210938 187.835938 284.125 187.59375 C 283.992188 187.03125 283.929688 186.464844 283.933594 185.886719 L 284.488281 185.492188 C 284.171875 184.804688 283.824219 184.667969 283.308594 185.238281 C 283.164062 185.410156 282.988281 185.519531 282.773438 185.566406 C 282.3125 185.574219 281.851562 185.558594 281.394531 185.523438 C 280.695312 184.90625 281.875 184.464844 281.679688 183.8125 L 280.976562 183.726562 C 281.390625 182.824219 281.765625 182 282.207031 181.070312 L 280.855469 180.453125 C 280.679688 180.777344 280.472656 181.078125 280.238281 181.359375 C 280.171875 181.425781 279.710938 181.261719 279.710938 181.207031 C 279.734375 180.714844 279.785156 180.226562 279.859375 179.742188 L 279.496094 179.304688 C 279.671875 178.996094 280.046875 178.628906 279.976562 178.445312 C 279.585938 177.492188 280.398438 177.304688 281.015625 176.765625 L 280.398438 176.523438 C 280.773438 175.976562 281.070312 175.558594 281.359375 175.148438 L 281.03125 174.890625 C 280.601562 175.367188 280.183594 175.855469 279.742188 176.316406 C 279.625 176.4375 279.335938 176.574219 279.28125 176.523438 C 279.128906 176.378906 279.035156 176.203125 278.996094 175.996094 C 278.976562 175.792969 278.976562 175.585938 278.996094 175.382812 L 278.691406 175.3125 L 277.84375 177.535156 L 277.6875 177.464844 C 277.769531 177.171875 277.855469 176.851562 277.953125 176.519531 L 277.191406 176.519531 C 277.613281 175.824219 278.050781 175.117188 278.492188 174.410156 L 278.277344 174.207031 L 277.355469 174.542969 C 277.355469 174.050781 277.3125 173.632812 277.28125 172.921875 L 275.894531 174.625 C 275.726562 174.238281 275.609375 173.964844 275.503906 173.714844 C 277.078125 173.222656 277.074219 171.652344 277.792969 170.386719 L 276.113281 170.75 L 276.058594 170.136719 L 275.894531 170.0625 L 274.816406 171.753906 L 274.640625 169.539062 L 275.113281 169.195312 C 274.34375 168.273438 275.792969 167.878906 275.546875 166.917969 L 274.019531 168.011719 C 273.933594 166.785156 273.851562 165.683594 273.773438 164.574219 L 273.34375 164.574219 C 273.253906 165.640625 273.167969 166.703125 273.082031 167.679688 L 272.191406 167.621094 L 272.808594 168.964844 L 272.117188 169.140625 L 272.769531 169.957031 L 272.074219 170.109375 L 272.074219 171.671875 L 271.945312 171.671875 L 271.535156 170.757812 L 270.140625 171.984375 L 271.117188 172.601562 C 270.726562 172.683594 270.347656 172.792969 269.972656 172.925781 C 269.707031 173.042969 269.503906 173.222656 269.359375 173.472656 C 269.304688 173.617188 269.574219 173.898438 269.695312 174.089844 C 269.820312 174.28125 269.996094 174.625 270.152344 174.894531 L 269.980469 174.988281 L 268.75 174.253906 L 268.609375 174.453125 C 269.089844 175.148438 269.574219 175.835938 270.152344 176.660156 C 269.1875 176.550781 268.308594 176.582031 267.59375 175.902344 L 266.765625 176.871094 L 267.484375 177.21875 C 267.324219 177.699219 266.9375 178.246094 267.070312 178.554688 C 267.601562 179.609375 268.183594 180.636719 268.824219 181.628906 C 267.992188 181.949219 268.300781 182.503906 268.484375 183.09375 L 267.183594 182.21875 C 266.789062 183.242188 268.035156 183.949219 267.476562 184.875 L 264.914062 183.703125 C 264.71875 184.078125 264.570312 184.367188 264.402344 184.675781 C 265.363281 185.511719 265.480469 187.085938 267.070312 187.472656 L 266.175781 188.257812 C 266.652344 188.46875 267.046875 188.648438 267.457031 188.835938 C 266.464844 190.382812 265.554688 188.929688 264.734375 188.835938 C 264.421875 189.023438 264.207031 189.253906 263.972656 189.273438 C 263.316406 189.324219 262.644531 189.273438 261.859375 189.273438 C 262.117188 190.585938 262.332031 191.667969 263.304688 192.441406 C 263.449219 192.558594 263.488281 192.824219 263.574219 193.019531 C 263.359375 193.074219 263.144531 193.085938 262.929688 193.0625 C 262.183594 192.847656 261.699219 193.097656 261.5625 193.511719 C 261.914062 194.328125 262.179688 194.882812 262.4375 195.527344 C 262.6875 195.789062 263.578125 195.28125 263.605469 196.390625 C 262.78125 196.148438 262.078125 195.917969 261.367188 195.773438 C 261.101562 195.742188 260.835938 195.753906 260.574219 195.8125 C 260.515625 195.722656 260.445312 195.644531 260.359375 195.578125 L 260.53125 195.128906 L 260.402344 195.023438 L 259.40625 195.832031 C 259.226562 195.515625 259.085938 195.265625 258.976562 195.078125 C 259.234375 194.558594 259.996094 194.742188 260.0625 194.183594 C 259.84375 194.015625 259.585938 193.921875 259.546875 193.769531 C 259.511719 193.617188 259.652344 193.375 259.707031 193.210938 C 259.523438 193.117188 259.226562 193.070312 259.179688 192.933594 C 259.105469 192.605469 259.070312 192.273438 259.066406 191.9375 C 259.128906 191.894531 259.257812 191.808594 259.386719 191.710938 C 259.210938 191.308594 259.007812 191.230469 258.707031 191.5625 C 258.625 191.664062 258.523438 191.726562 258.398438 191.753906 C 258.132812 191.765625 257.863281 191.765625 257.597656 191.753906 C 257.191406 191.414062 257.875 191.136719 257.757812 190.761719 L 257.351562 190.714844 L 258.054688 189.167969 L 257.273438 188.824219 C 257.164062 189.011719 257.042969 189.183594 256.902344 189.347656 C 256.859375 189.386719 256.597656 189.292969 256.597656 189.261719 C 256.609375 188.976562 256.640625 188.695312 256.683594 188.414062 L 256.46875 188.15625 C 256.578125 187.976562 256.792969 187.765625 256.75 187.65625 C 256.523438 187.101562 256.996094 187 257.363281 186.683594 L 257.007812 186.542969 C 257.230469 186.230469 257.394531 185.984375 257.566406 185.742188 L 257.378906 185.597656 C 257.132812 185.875 256.886719 186.15625 256.628906 186.425781 C 256.558594 186.496094 256.394531 186.574219 256.363281 186.542969 C 256.273438 186.460938 256.21875 186.359375 256.195312 186.234375 C 256.183594 186.113281 256.183594 185.992188 256.195312 185.875 L 256.019531 185.832031 C 255.851562 186.261719 255.6875 186.691406 255.527344 187.121094 L 255.433594 187.078125 L 255.589844 186.53125 L 255.183594 186.53125 C 255.429688 186.125 255.6875 185.71875 255.9375 185.300781 L 255.816406 185.183594 L 255.28125 185.382812 C 255.28125 185.09375 255.28125 184.851562 255.238281 184.441406 C 254.914062 184.832031 254.671875 185.128906 254.433594 185.429688 L 254.207031 184.902344 C 255.121094 184.613281 255.113281 183.671875 255.53125 182.96875 L 254.5625 183.179688 L 254.53125 182.824219 L 254.433594 182.78125 C 254.230469 183.097656 254.027344 183.425781 253.816406 183.765625 C 253.789062 183.320312 253.75 182.921875 253.714844 182.476562 L 253.992188 182.28125 C 253.546875 181.742188 254.382812 181.519531 254.242188 180.960938 L 253.355469 181.574219 C 253.308594 180.867188 253.257812 180.226562 253.214844 179.582031 L 252.964844 179.582031 C 252.914062 180.195312 252.867188 180.8125 252.816406 181.382812 L 252.292969 181.347656 C 252.417969 181.605469 252.539062 181.871094 252.65625 182.128906 L 252.257812 182.226562 L 252.636719 182.699219 L 252.230469 182.792969 L 252.230469 183.695312 L 252.160156 183.695312 L 251.917969 183.167969 L 251.105469 183.875 L 251.679688 184.226562 C 251.453125 184.273438 251.230469 184.335938 251.015625 184.414062 C 250.855469 184.476562 250.734375 184.582031 250.644531 184.730469 C 250.609375 184.816406 250.769531 184.980469 250.835938 185.105469 L 251.105469 185.570312 L 251.003906 185.628906 L 250.277344 185.203125 L 250.191406 185.320312 L 251.089844 186.597656 C 250.542969 186.632812 250.046875 186.484375 249.605469 186.15625 C 249.441406 186.351562 249.292969 186.519531 249.128906 186.722656 L 249.539062 186.925781 C 249.449219 187.203125 249.226562 187.539062 249.304688 187.699219 C 249.609375 188.316406 249.949219 188.914062 250.320312 189.488281 C 249.835938 189.675781 250.011719 190 250.125 190.339844 L 249.367188 189.832031 C 249.140625 190.449219 249.867188 190.835938 249.539062 191.378906 L 248.050781 190.695312 C 247.933594 190.910156 247.847656 191.074219 247.757812 191.253906 C 248.308594 191.742188 248.371094 192.65625 249.304688 192.878906 L 248.785156 193.332031 L 249.527344 193.671875 C 248.949219 194.570312 248.421875 193.726562 247.949219 193.671875 C 247.769531 193.78125 247.640625 193.910156 247.503906 193.921875 C 247.125 193.953125 246.734375 193.921875 246.273438 193.921875 C 246.332031 194.183594 246.378906 194.421875 246.441406 194.648438 L 245.828125 194.207031 L 234.664062 172.679688 L 227.484375 171.449219 L 221.5 164.6875 L 217.070312 167.097656 L 213.078125 170.785156 L 207.496094 178.167969 L 196.734375 149.261719 L 181.179688 140.085938 L 173.988281 128.917969 L 164.023438 132.503906 L 156.824219 145.269531 L 140.878906 173.199219 L 130.507812 178.179688 L 119.554688 191.234375 C 119.507812 191.261719 119.464844 191.292969 119.429688 191.335938 C 119.382812 191.398438 119.316406 191.441406 119.234375 191.457031 C 119.066406 191.46875 118.898438 191.46875 118.730469 191.457031 C 118.464844 191.242188 118.902344 191.070312 118.828125 190.84375 L 118.570312 190.804688 L 119.019531 189.828125 L 118.523438 189.605469 C 118.453125 189.726562 118.375 189.835938 118.28125 189.9375 C 118.28125 189.9375 118.089844 189.902344 118.089844 189.882812 C 118.097656 189.703125 118.113281 189.519531 118.140625 189.34375 C 118.140625 189.34375 118.066406 189.25 118.011719 189.183594 C 118.078125 189.066406 118.214844 188.929688 118.183594 188.863281 C 118.042969 188.511719 118.34375 188.445312 118.570312 188.246094 L 118.34375 188.160156 L 118.699219 187.652344 L 118.578125 187.558594 C 118.421875 187.730469 118.269531 187.914062 118.105469 188.082031 C 118.0625 188.125 117.957031 188.179688 117.933594 188.160156 C 117.875 188.105469 117.84375 188.039062 117.828125 187.964844 C 117.816406 187.886719 117.816406 187.808594 117.828125 187.730469 L 117.710938 187.730469 L 117.398438 188.546875 L 117.339844 188.546875 L 117.441406 188.199219 L 117.175781 188.199219 C 117.335938 187.945312 117.496094 187.679688 117.660156 187.421875 C 117.632812 187.398438 117.605469 187.371094 117.582031 187.34375 L 117.238281 187.472656 L 117.238281 186.855469 L 116.726562 187.472656 C 116.664062 187.324219 116.621094 187.226562 116.578125 187.132812 C 117.195312 186.949219 117.15625 186.371094 117.425781 185.902344 L 116.8125 186.039062 L 116.8125 185.8125 L 116.746094 185.8125 L 116.351562 186.425781 C 116.351562 186.144531 116.308594 185.890625 116.285156 185.609375 L 116.460938 185.484375 C 116.171875 185.140625 116.707031 184.992188 116.621094 184.644531 L 116.058594 185.050781 C 116.058594 184.59375 115.996094 184.1875 115.964844 183.777344 L 115.804688 183.777344 C 115.804688 184.164062 115.742188 184.558594 115.710938 184.917969 L 115.378906 184.917969 L 115.609375 185.417969 L 115.355469 185.484375 L 115.59375 185.785156 L 115.335938 185.84375 L 115.335938 186.421875 L 115.289062 186.421875 L 115.140625 186.082031 L 114.625 186.539062 L 114.988281 186.757812 C 114.84375 186.785156 114.699219 186.828125 114.5625 186.882812 C 114.460938 186.917969 114.382812 186.984375 114.328125 187.078125 C 114.328125 187.132812 114.402344 187.238281 114.453125 187.320312 L 114.617188 187.621094 L 114.558594 187.621094 L 114.089844 187.347656 L 114.039062 187.421875 L 114.613281 188.242188 C 114.261719 188.261719 113.945312 188.167969 113.664062 187.957031 L 113.359375 188.316406 L 113.621094 188.449219 C 113.566406 188.621094 113.417969 188.824219 113.476562 188.941406 C 113.65625 189.332031 113.863281 189.710938 114.089844 190.078125 C 113.78125 190.203125 113.894531 190.40625 113.964844 190.621094 L 113.480469 190.300781 C 113.339844 190.675781 113.800781 190.917969 113.589844 191.285156 L 112.644531 190.847656 L 112.453125 191.207031 C 112.8125 191.519531 112.855469 192.097656 113.445312 192.238281 C 113.308594 192.355469 113.230469 192.421875 113.113281 192.535156 L 113.585938 192.742188 C 113.214844 193.316406 112.878906 192.78125 112.578125 192.742188 C 112.578125 192.527344 112.578125 192.300781 112.527344 192.058594 C 112.589844 192.015625 112.71875 191.929688 112.847656 191.832031 C 112.667969 191.433594 112.464844 191.351562 112.164062 191.683594 C 112.085938 191.785156 111.984375 191.851562 111.859375 191.875 C 111.589844 191.890625 111.324219 191.890625 111.058594 191.875 C 110.648438 191.539062 111.335938 191.261719 111.21875 190.886719 L 110.8125 190.835938 L 111.515625 189.292969 L 110.722656 188.898438 C 110.609375 189.082031 110.488281 189.257812 110.351562 189.421875 C 110.308594 189.457031 110.042969 189.367188 110.042969 189.335938 C 110.054688 189.050781 110.082031 188.769531 110.128906 188.488281 L 109.914062 188.230469 C 110.019531 188.050781 110.242188 187.839844 110.191406 187.730469 C 109.972656 187.175781 110.445312 187.074219 110.808594 186.757812 L 110.449219 186.617188 L 111.003906 185.816406 L 110.820312 185.671875 C 110.574219 185.945312 110.328125 186.230469 110.070312 186.5 C 110 186.566406 109.835938 186.648438 109.796875 186.617188 C 109.714844 186.53125 109.660156 186.429688 109.640625 186.308594 C 109.625 186.1875 109.625 186.066406 109.640625 185.945312 L 109.460938 185.902344 C 109.292969 186.335938 109.128906 186.765625 108.96875 187.195312 L 108.875 187.152344 L 109.03125 186.605469 L 108.625 186.605469 C 108.871094 186.199219 109.128906 185.792969 109.378906 185.375 L 109.257812 185.257812 L 108.722656 185.453125 C 108.722656 185.164062 108.722656 184.925781 108.679688 184.515625 C 108.355469 184.90625 108.113281 185.203125 107.875 185.503906 L 107.648438 184.976562 C 108.558594 184.6875 108.558594 183.746094 108.976562 183.042969 L 107.996094 183.253906 L 107.996094 182.898438 L 107.898438 182.851562 L 107.285156 183.835938 C 107.246094 183.394531 107.21875 182.996094 107.179688 182.550781 L 107.457031 182.355469 C 107.015625 181.8125 107.851562 181.59375 107.707031 181.03125 L 106.824219 181.648438 C 106.773438 180.941406 106.726562 180.300781 106.683594 179.65625 L 106.429688 179.65625 C 106.378906 180.269531 106.332031 180.886719 106.28125 181.457031 L 105.761719 181.421875 C 105.882812 181.679688 106.003906 181.941406 106.121094 182.203125 L 105.722656 182.300781 L 106.097656 182.773438 L 105.699219 182.867188 L 105.699219 183.769531 L 105.625 183.769531 L 105.386719 183.242188 L 104.574219 183.949219 L 105.144531 184.296875 C 104.917969 184.347656 104.699219 184.410156 104.480469 184.488281 C 104.320312 184.550781 104.199219 184.65625 104.113281 184.804688 C 104.074219 184.890625 104.230469 185.054688 104.304688 185.179688 C 104.375 185.300781 104.480469 185.492188 104.566406 185.644531 L 104.46875 185.699219 L 103.742188 185.277344 L 103.65625 185.394531 L 104.554688 186.671875 C 104.007812 186.703125 103.511719 186.554688 103.066406 186.230469 L 102.59375 186.796875 L 103.007812 187 C 102.914062 187.273438 102.6875 187.613281 102.765625 187.773438 C 103.070312 188.386719 103.410156 188.984375 103.78125 189.5625 C 103.300781 189.746094 103.480469 190.074219 103.589844 190.410156 L 102.832031 189.90625 C 102.605469 190.523438 103.324219 190.910156 103 191.453125 L 101.519531 190.769531 C 101.402344 190.984375 101.316406 191.148438 101.222656 191.328125 C 101.777344 191.8125 101.839844 192.730469 102.765625 192.953125 L 102.25 193.40625 L 102.992188 193.746094 C 102.414062 194.644531 101.886719 193.800781 101.414062 193.746094 C 101.230469 193.855469 101.105469 193.984375 100.972656 193.996094 C 100.589844 194.027344 100.203125 193.996094 99.742188 193.996094 L 99.832031 194.441406 C 99.679688 194.34375 99.550781 194.242188 99.519531 194.125 C 99.457031 193.867188 99.679688 193.542969 99.753906 193.300781 C 99.488281 193.167969 99.058594 193.09375 98.984375 192.890625 C 98.875 192.414062 98.820312 191.929688 98.824219 191.4375 C 98.910156 191.371094 99.097656 191.242188 99.292969 191.105469 C 99.027344 190.523438 98.726562 190.398438 98.289062 190.886719 C 98.175781 191.066406 98.019531 191.183594 97.8125 191.234375 C 97.421875 191.246094 97.03125 191.230469 96.644531 191.191406 C 96.027344 190.699219 97.042969 190.296875 96.882812 189.742188 L 96.269531 189.675781 C 96.617188 188.898438 96.933594 188.203125 97.296875 187.417969 L 96.144531 186.90625 C 95.988281 187.175781 95.808594 187.429688 95.605469 187.667969 C 95.542969 187.730469 95.15625 187.589844 95.15625 187.539062 C 95.15625 187.164062 95.222656 186.785156 95.277344 186.308594 L 94.972656 185.941406 C 95.125 185.675781 95.4375 185.363281 95.378906 185.207031 C 95.050781 184.398438 95.738281 184.242188 96.261719 183.78125 L 95.746094 183.574219 L 96.558594 182.40625 L 96.28125 182.1875 C 95.917969 182.59375 95.5625 183.007812 95.1875 183.417969 C 95.089844 183.523438 94.84375 183.640625 94.792969 183.597656 C 94.664062 183.472656 94.585938 183.320312 94.554688 183.140625 C 94.535156 182.964844 94.535156 182.785156 94.554688 182.609375 L 94.28125 182.550781 L 93.5625 184.441406 L 93.433594 184.378906 C 93.503906 184.125 93.574219 183.875 93.660156 183.574219 L 93.046875 183.574219 L 94.152344 181.785156 L 93.976562 181.609375 L 93.1875 181.898438 L 93.121094 180.515625 C 92.652344 181.101562 92.304688 181.53125 91.945312 181.96875 L 91.613281 181.191406 C 92.949219 180.769531 92.949219 179.441406 93.558594 178.363281 L 92.132812 178.671875 C 92.132812 178.542969 92.101562 178.351562 92.089844 178.15625 L 91.945312 178.085938 L 91.050781 179.484375 L 90.894531 177.601562 L 91.300781 177.3125 C 90.644531 176.523438 91.878906 176.191406 91.671875 175.382812 L 90.367188 176.308594 L 90.140625 173.402344 L 89.777344 173.402344 C 89.703125 174.304688 89.628906 175.207031 89.554688 176.039062 L 88.800781 175.984375 L 89.320312 177.128906 L 88.707031 177.273438 C 88.921875 177.546875 89.074219 177.738281 89.261719 177.976562 L 88.644531 178.105469 L 88.644531 179.429688 L 88.535156 179.429688 C 88.425781 179.175781 88.308594 178.921875 88.191406 178.652344 L 87.003906 179.699219 L 87.835938 180.214844 C 87.503906 180.28125 87.179688 180.375 86.863281 180.492188 C 86.628906 180.582031 86.449219 180.738281 86.320312 180.953125 C 86.273438 181.074219 86.5 181.316406 86.605469 181.5 L 86.992188 182.1875 L 86.84375 182.269531 L 85.78125 181.652344 L 85.660156 181.820312 L 86.96875 183.695312 C 86.148438 183.597656 85.382812 183.621094 84.796875 183.050781 C 84.550781 183.332031 84.34375 183.578125 84.097656 183.875 L 84.710938 184.167969 C 84.578125 184.582031 84.246094 185.042969 84.359375 185.308594 C 84.8125 186.207031 85.308594 187.085938 85.847656 187.933594 C 85.140625 188.203125 85.40625 188.675781 85.558594 189.164062 L 84.453125 188.425781 C 84.121094 189.292969 85.179688 189.894531 84.707031 190.683594 L 82.527344 189.679688 C 82.355469 190 82.226562 190.246094 82.09375 190.511719 C 82.910156 191.222656 83.007812 192.558594 84.359375 192.882812 L 83.671875 193.566406 L 84.765625 194.058594 C 83.917969 195.367188 83.144531 194.140625 82.449219 194.058594 C 82.183594 194.21875 82 194.414062 81.796875 194.429688 C 81.238281 194.476562 80.671875 194.429688 80.003906 194.429688 C 80.222656 195.542969 80.410156 196.464844 81.230469 197.117188 C 81.355469 197.21875 81.386719 197.449219 81.460938 197.613281 C 81.277344 197.65625 81.097656 197.667969 80.914062 197.652344 C 80.296875 197.464844 79.855469 197.652344 79.75 198.03125 L 80.496094 199.746094 C 80.703125 199.964844 81.464844 199.53125 81.492188 200.472656 C 80.785156 200.269531 80.191406 200.074219 79.585938 199.933594 C 79.335938 199.90625 79.089844 199.921875 78.847656 199.96875 C 78.871094 200.296875 78.929688 200.617188 79.019531 200.933594 C 79.1875 201.222656 79.394531 201.488281 79.632812 201.722656 L 77.980469 201.390625 C 78.140625 202.003906 78.261719 202.527344 78.390625 203.054688 L 78.089844 203.316406 C 78.503906 203.929688 78.878906 204.542969 79.320312 205.191406 C 78.867188 206.035156 78.195312 204.914062 77.542969 205.191406 C 77.628906 205.585938 77.722656 205.984375 77.808594 206.390625 L 77.476562 206.851562 C 78.03125 207.257812 79 206.957031 78.914062 208.011719 C 79.472656 208.171875 79.671875 209.078125 80.488281 208.746094 C 80.660156 208.671875 80.925781 208.808594 81.140625 208.851562 C 80.816406 209.113281 80.453125 209.289062 80.042969 209.371094 C 79.632812 209.453125 79.230469 209.4375 78.828125 209.316406 C 77.671875 209.011719 77.507812 209.164062 77.597656 210.386719 L 79.382812 211.304688 L 79.3125 211.476562 L 78.625 211.433594 C 78.011719 211.378906 77.394531 211.292969 76.78125 211.273438 C 76.5625 211.304688 76.359375 211.371094 76.167969 211.476562 C 76.257812 211.648438 76.339844 211.828125 76.449219 211.992188 C 76.558594 212.160156 76.769531 212.441406 76.949219 212.6875 C 76.136719 212.792969 75.859375 213.179688 76.265625 213.632812 C 76.78125 214.160156 77.324219 214.652344 77.894531 215.117188 L 78.097656 215.960938 L 74.9375 214.871094 L 74.8125 215.03125 C 75.21875 215.757812 75.621094 216.480469 76.085938 217.3125 L 77.722656 218.296875 L 77.65625 218.460938 L 75.679688 217.679688 C 75.59375 217.644531 75.484375 217.570312 75.421875 217.601562 C 74.710938 217.964844 74.195312 217.421875 73.664062 217.171875 C 72.851562 216.800781 72.871094 216.769531 72.589844 217.558594 L 73.820312 218.75 L 73.277344 219.484375 C 73.574219 219.71875 73.855469 219.949219 74.132812 220.179688 L 301.664062 220.179688 Z M 100.007812 195.203125 C 100.121094 195.476562 100.296875 195.703125 100.527344 195.886719 C 100.582031 195.941406 100.617188 196.007812 100.632812 196.082031 L 100.417969 196.253906 L 100.308594 196.253906 C 99.878906 196.125 99.589844 196.253906 99.519531 196.511719 C 99.574219 196.636719 99.621094 196.753906 99.667969 196.863281 L 99.261719 197.195312 L 98.648438 196.09375 C 98.925781 195.542969 99.65625 195.542969 100.007812 195.203125 Z M 260.449219 196.714844 C 260.488281 196.65625 260.515625 196.589844 260.542969 196.523438 C 260.5625 196.707031 260.601562 196.882812 260.660156 197.054688 C 260.863281 197.390625 261.101562 197.699219 261.375 197.984375 L 260.144531 197.738281 C 260.144531 197.65625 260.082031 197.566406 260.070312 197.503906 C 260.175781 197.230469 260.300781 196.96875 260.445312 196.714844 Z M 259.566406 198.351562 L 259.609375 198.351562 C 259.6875 198.652344 259.757812 198.964844 259.824219 199.21875 L 259.730469 199.261719 L 259.351562 198.980469 C 259.417969 198.75 259.484375 198.546875 259.558594 198.351562 Z M 289.398438 204.957031 L 288.539062 205.203125 L 288.464844 205.203125 L 288.015625 205.332031 C 288.210938 204.925781 288.4375 204.539062 288.691406 204.167969 C 288.761719 204.035156 288.820312 203.890625 288.863281 203.746094 C 289.042969 204.117188 289.332031 204.355469 289.730469 204.464844 L 289.257812 204.878906 Z M 289.398438 204.957031 " fill-opacity="1" fill-rule="nonzero"/></g><path fill="#ffffff" d="M 174.386719 161.828125 L 176.183594 153.050781 C 176.183594 153.050781 172.199219 155.640625 172.199219 155.042969 C 172.199219 154.445312 174.589844 148.0625 174.589844 148.0625 L 176.183594 145.46875 L 175.785156 141.480469 L 170.804688 144.46875 L 171.597656 139.285156 L 172.992188 132.304688 L 166.230469 136.492188 L 152.871094 159.035156 L 149.082031 165.800781 L 157.6875 159.035156 L 161.675781 155.246094 L 159.082031 160.226562 L 154.097656 165.816406 L 149.109375 171.199219 L 144.925781 173.199219 L 143.730469 175.988281 L 132.167969 179.976562 L 125.542969 190.148438 L 134.515625 185.160156 L 143.484375 182.570312 L 138.898438 188.953125 L 130.910156 197.332031 L 139.679688 191.542969 L 134.5 207.902344 L 153.234375 197.527344 L 162.609375 194.734375 L 173.175781 185.558594 L 180.183594 179.378906 L 173.207031 180.375 L 178.195312 173.792969 L 181.179688 165.613281 L 184.769531 159.433594 L 189.355469 155.246094 L 180.382812 157.238281 Z M 174.386719 161.828125 " fill-opacity="1" fill-rule="nonzero"/><path fill="#ffffff" d="M 226.523438 175.289062 L 219.546875 183.167969 L 220.746094 178.179688 L 223.136719 174.789062 L 216.855469 177.386719 L 220.144531 173.394531 L 220.84375 167.910156 L 217.15625 170.105469 L 209.679688 179.183594 L 213.164062 185.664062 L 218.753906 192.941406 L 219.351562 191.144531 L 223.632812 190.546875 L 227.820312 183.070312 L 232.609375 176.785156 L 232.609375 174.59375 Z M 226.523438 175.289062 " fill-opacity="1" fill-rule="nonzero"/><g fill="#000000" fill-opacity="1"><g transform="translate(103.417966, 275.54336)"><g><path d="M 0.648438 0 L 7.847656 -47.671875 L 16.410156 -47.671875 L 23.609375 0 L 16.796875 0 L 15.5 -9.730469 L 8.757812 -9.730469 L 7.457031 0 Z M 12.519531 -32.171875 L 12.324219 -33.402344 L 11.933594 -33.402344 L 11.738281 -32.171875 L 9.730469 -17.121094 L 14.527344 -17.121094 Z M 12.519531 -32.171875 "/></g></g></g><g fill="#000000" fill-opacity="1"><g transform="translate(127.672435, 275.54336)"><g><path d="M 9.988281 -24.839844 L 9.40625 -27.046875 L 9.015625 -27.046875 L 9.015625 0 L 2.59375 0 L 2.59375 -47.671875 L 8.820312 -47.671875 L 15.632812 -22.832031 L 16.214844 -20.625 L 16.605469 -20.625 L 16.605469 -47.671875 L 23.023438 -47.671875 L 23.023438 0 L 16.796875 0 Z M 9.988281 -24.839844 "/></g></g></g><g fill="#000000" fill-opacity="1"><g transform="translate(153.288786, 275.54336)"><g><path d="M 13.816406 -30.550781 L 13.816406 -37.878906 C 13.816406 -39.175781 13.554688 -40.082031 12.90625 -40.863281 C 12.582031 -41.1875 12.0625 -41.378906 11.480469 -41.378906 C 10.246094 -41.378906 9.664062 -40.472656 9.40625 -39.628906 C 9.210938 -39.109375 9.144531 -38.527344 9.144531 -37.878906 L 9.144531 -9.210938 C 9.144531 -7.847656 9.46875 -6.941406 10.117188 -6.226562 C 10.441406 -5.902344 10.894531 -5.707031 11.480469 -5.707031 C 12.710938 -5.707031 13.296875 -6.484375 13.554688 -7.457031 C 13.75 -7.914062 13.816406 -8.496094 13.816406 -9.210938 L 13.816406 -17.835938 L 11.027344 -17.835938 L 11.027344 -23.738281 L 20.820312 -23.738281 L 20.820312 0 L 16.667969 0 L 15.824219 -2.269531 C 14.527344 -0.648438 12.648438 0.519531 10.378906 0.519531 C 8.109375 0.519531 6.550781 -0.0664062 5.382812 -1.101562 C 4.214844 -2.074219 3.4375 -3.308594 2.917969 -4.605469 C 2.335938 -6.097656 2.074219 -7.847656 2.140625 -9.792969 L 2.140625 -37.878906 C 2.207031 -39.757812 2.59375 -41.511719 3.308594 -43.003906 C 3.890625 -44.300781 4.734375 -45.597656 6.03125 -46.570312 C 7.328125 -47.542969 9.144531 -48.191406 11.480469 -48.191406 C 13.816406 -48.191406 15.566406 -47.542969 16.863281 -46.570312 C 18.160156 -45.597656 19.070312 -44.300781 19.652344 -43.003906 C 20.367188 -41.511719 20.753906 -39.757812 20.820312 -37.878906 L 20.820312 -30.550781 Z M 13.816406 -30.550781 "/></g></g></g><g fill="#000000" fill-opacity="1"><g transform="translate(176.635338, 275.54336)"><g><path d="M 2.59375 -47.671875 L 18.613281 -47.671875 L 18.613281 -40.472656 L 9.597656 -40.472656 L 9.597656 -27.953125 L 16.085938 -27.953125 L 16.085938 -20.300781 L 9.597656 -20.300781 L 9.597656 -7.199219 L 18.613281 -7.199219 L 18.613281 0 L 2.59375 0 Z M 2.59375 -47.671875 "/></g></g></g><g fill="#000000" fill-opacity="1"><g transform="translate(196.544749, 275.54336)"><g><path d="M 2.59375 -47.671875 L 9.597656 -47.671875 L 9.597656 -6.484375 L 18.875 -6.484375 L 18.875 0 L 2.59375 0 Z M 2.59375 -47.671875 "/></g></g></g><g fill="#000000" fill-opacity="1"><g transform="translate(215.67595, 275.54336)"><g/></g></g><g fill="#000000" fill-opacity="1"><g transform="translate(225.663082, 275.54336)"><g><path d="M 20.820312 -9.792969 C 20.820312 -8.691406 20.625 -7.457031 20.234375 -6.097656 C 20.042969 -5.382812 19.71875 -4.734375 19.394531 -4.019531 C 19.976562 -3.242188 20.820312 -2.59375 22.183594 -2.335938 L 22.183594 3.632812 C 18.226562 3.632812 16.214844 1.945312 14.984375 -0.0664062 C 14.007812 0.257812 12.84375 0.519531 11.480469 0.519531 C 9.144531 0.519531 7.328125 -0.0664062 6.03125 -1.101562 C 4.734375 -2.074219 3.890625 -3.308594 3.308594 -4.605469 C 2.59375 -6.097656 2.207031 -7.847656 2.140625 -9.792969 L 2.140625 -37.878906 C 2.207031 -39.757812 2.59375 -41.511719 3.308594 -43.003906 C 3.890625 -44.300781 4.734375 -45.597656 6.03125 -46.570312 C 7.328125 -47.542969 9.144531 -48.191406 11.480469 -48.191406 C 13.816406 -48.191406 15.566406 -47.542969 16.863281 -46.570312 C 18.160156 -45.597656 19.070312 -44.300781 19.652344 -43.003906 C 20.367188 -41.511719 20.753906 -39.757812 20.820312 -37.878906 Z M 13.816406 -37.878906 C 13.816406 -39.175781 13.554688 -40.082031 12.90625 -40.863281 C 12.582031 -41.1875 12.0625 -41.378906 11.480469 -41.378906 C 10.246094 -41.378906 9.664062 -40.472656 9.40625 -39.628906 C 9.210938 -39.109375 9.144531 -38.527344 9.144531 -37.878906 L 9.144531 -9.792969 C 9.144531 -8.433594 9.46875 -7.523438 10.117188 -6.808594 C 10.441406 -6.484375 10.894531 -6.292969 11.480469 -6.292969 C 12.710938 -6.292969 13.296875 -7.070312 13.554688 -8.042969 C 13.75 -8.496094 13.816406 -9.082031 13.816406 -9.792969 Z M 13.816406 -37.878906 "/></g></g></g><g fill="#000000" fill-opacity="1"><g transform="translate(248.75022, 275.54336)"><g><path d="M 2.59375 -47.671875 L 9.597656 -47.671875 C 12.648438 -47.671875 15.695312 -46.894531 18.03125 -44.6875 C 20.367188 -42.484375 21.921875 -38.851562 21.921875 -33.402344 C 21.921875 -27.953125 20.367188 -24.386719 18.03125 -22.183594 C 15.695312 -19.976562 12.648438 -19.070312 9.597656 -19.070312 L 9.597656 0 L 2.59375 0 Z M 9.597656 -26.203125 C 11.738281 -26.203125 13.101562 -26.59375 13.878906 -27.695312 C 14.660156 -28.734375 14.851562 -30.484375 14.851562 -33.144531 C 14.851562 -35.800781 14.660156 -37.683594 13.878906 -38.851562 C 13.101562 -40.019531 11.738281 -40.539062 9.597656 -40.539062 Z M 9.597656 -26.203125 "/></g></g></g><g fill="#000000" fill-opacity="1"><g transform="translate(139.324214, 298.889512)"><g><path d="M 0.578125 -12.84375 L 2.0625 -12.84375 L 3.4375 -3.609375 L 5.171875 -12.796875 L 6.4375 -12.796875 L 8.1875 -3.5625 L 9.53125 -12.84375 L 10.984375 -12.84375 L 8.921875 0 L 7.625 0 L 5.84375 -9.515625 L 4.03125 0 L 2.671875 0 Z M 0.578125 -12.84375 "/></g></g></g><g fill="#000000" fill-opacity="1"><g transform="translate(150.882826, 298.889512)"><g><path d="M 1 -12.84375 L 5.984375 -12.84375 L 5.984375 -11.515625 L 2.796875 -11.515625 L 2.796875 -7.265625 L 5.375 -7.265625 L 5.375 -6 L 2.796875 -6 L 2.796875 -1.28125 L 6.015625 -1.28125 L 6.015625 0 L 1 0 Z M 1 -12.84375 "/></g></g></g><g fill="#000000" fill-opacity="1"><g transform="translate(157.335989, 298.889512)"><g><path d="M 1 -12.84375 L 3.953125 -12.84375 C 5.109375 -12.84375 5.96875 -12.582031 6.53125 -12.0625 C 7.09375 -11.539062 7.375 -10.726562 7.375 -9.625 C 7.375 -7.988281 6.757812 -7.085938 5.53125 -6.921875 C 6.289062 -6.734375 6.84375 -6.375 7.1875 -5.84375 C 7.539062 -5.3125 7.71875 -4.582031 7.71875 -3.65625 C 7.71875 -2.507812 7.445312 -1.613281 6.90625 -0.96875 C 6.363281 -0.320312 5.535156 0 4.421875 0 L 1 0 Z M 3.859375 -7.484375 C 4.597656 -7.484375 5.109375 -7.644531 5.390625 -7.96875 C 5.679688 -8.289062 5.828125 -8.84375 5.828125 -9.625 C 5.828125 -10.195312 5.738281 -10.617188 5.5625 -10.890625 C 5.382812 -11.160156 5.117188 -11.332031 4.765625 -11.40625 C 4.421875 -11.476562 3.90625 -11.515625 3.21875 -11.515625 L 2.796875 -11.515625 L 2.796875 -7.484375 Z M 4 -1.28125 C 4.53125 -1.28125 4.9375 -1.363281 5.21875 -1.53125 C 5.507812 -1.695312 5.710938 -1.945312 5.828125 -2.28125 C 5.953125 -2.625 6.015625 -3.082031 6.015625 -3.65625 C 6.015625 -4.488281 5.84375 -5.109375 5.5 -5.515625 C 5.164062 -5.921875 4.617188 -6.125 3.859375 -6.125 L 2.796875 -6.125 L 2.796875 -1.28125 Z M 4 -1.28125 "/></g></g></g><g fill="#000000" fill-opacity="1"><g transform="translate(165.644239, 298.889512)"><g/></g></g><g fill="#000000" fill-opacity="1"><g transform="translate(169.275128, 298.889512)"><g><path d="M 1 -12.84375 L 3.796875 -12.84375 C 5.179688 -12.84375 6.160156 -12.523438 6.734375 -11.890625 C 7.304688 -11.253906 7.59375 -10.265625 7.59375 -8.921875 L 7.59375 -4.203125 C 7.59375 -2.785156 7.3125 -1.726562 6.75 -1.03125 C 6.1875 -0.34375 5.25 0 3.9375 0 L 1 0 Z M 3.8125 -1.28125 C 4.425781 -1.28125 4.875 -1.398438 5.15625 -1.640625 C 5.4375 -1.890625 5.609375 -2.222656 5.671875 -2.640625 C 5.742188 -3.054688 5.78125 -3.6875 5.78125 -4.53125 L 5.78125 -8.703125 C 5.78125 -9.429688 5.734375 -9.988281 5.640625 -10.375 C 5.554688 -10.757812 5.367188 -11.046875 5.078125 -11.234375 C 4.796875 -11.421875 4.359375 -11.515625 3.765625 -11.515625 L 2.796875 -11.515625 L 2.796875 -1.28125 Z M 3.8125 -1.28125 "/></g></g></g><g fill="#000000" fill-opacity="1"><g transform="translate(177.63094, 298.889512)"><g><path d="M 1 -12.84375 L 5.984375 -12.84375 L 5.984375 -11.515625 L 2.796875 -11.515625 L 2.796875 -7.265625 L 5.375 -7.265625 L 5.375 -6 L 2.796875 -6 L 2.796875 -1.28125 L 6.015625 -1.28125 L 6.015625 0 L 1 0 Z M 1 -12.84375 "/></g></g></g><g fill="#000000" fill-opacity="1"><g transform="translate(184.084103, 298.889512)"><g><path d="M 0.359375 -12.84375 L 2.046875 -12.84375 L 4.078125 -3.375 L 6.015625 -12.84375 L 7.640625 -12.84375 L 4.8125 0 L 3.234375 0 Z M 0.359375 -12.84375 "/></g></g></g><g fill="#000000" fill-opacity="1"><g transform="translate(192.091098, 298.889512)"><g><path d="M 1 -12.84375 L 5.984375 -12.84375 L 5.984375 -11.515625 L 2.796875 -11.515625 L 2.796875 -7.265625 L 5.375 -7.265625 L 5.375 -6 L 2.796875 -6 L 2.796875 -1.28125 L 6.015625 -1.28125 L 6.015625 0 L 1 0 Z M 1 -12.84375 "/></g></g></g><g fill="#000000" fill-opacity="1"><g transform="translate(198.544261, 298.889512)"><g><path d="M 1 -12.84375 L 2.796875 -12.84375 L 2.796875 -1.28125 L 6.078125 -1.28125 L 6.078125 0 L 1 0 Z M 1 -12.84375 "/></g></g></g><g fill="#000000" fill-opacity="1"><g transform="translate(204.838866, 298.889512)"><g><path d="M 4.28125 0.140625 C 3.019531 0.140625 2.117188 -0.210938 1.578125 -0.921875 C 1.035156 -1.640625 0.765625 -2.675781 0.765625 -4.03125 L 0.765625 -8.890625 C 0.765625 -10.222656 1.035156 -11.234375 1.578125 -11.921875 C 2.128906 -12.609375 3.03125 -12.953125 4.28125 -12.953125 C 5.53125 -12.953125 6.425781 -12.601562 6.96875 -11.90625 C 7.507812 -11.21875 7.78125 -10.210938 7.78125 -8.890625 L 7.78125 -4.015625 C 7.78125 -2.679688 7.503906 -1.65625 6.953125 -0.9375 C 6.410156 -0.21875 5.519531 0.140625 4.28125 0.140625 Z M 4.28125 -1.265625 C 4.945312 -1.265625 5.394531 -1.457031 5.625 -1.84375 C 5.863281 -2.238281 5.984375 -2.832031 5.984375 -3.625 L 5.984375 -9.265625 C 5.984375 -10.046875 5.863281 -10.625 5.625 -11 C 5.394531 -11.375 4.945312 -11.5625 4.28125 -11.5625 C 3.601562 -11.5625 3.144531 -11.375 2.90625 -11 C 2.675781 -10.625 2.5625 -10.046875 2.5625 -9.265625 L 2.5625 -3.625 C 2.5625 -2.832031 2.675781 -2.238281 2.90625 -1.84375 C 3.144531 -1.457031 3.601562 -1.265625 4.28125 -1.265625 Z M 4.28125 -1.265625 "/></g></g></g><g fill="#000000" fill-opacity="1"><g transform="translate(213.384947, 298.889512)"><g><path d="M 1 -12.84375 L 4.1875 -12.84375 C 5.300781 -12.84375 6.109375 -12.539062 6.609375 -11.9375 C 7.109375 -11.332031 7.359375 -10.453125 7.359375 -9.296875 C 7.359375 -8.242188 7.085938 -7.425781 6.546875 -6.84375 C 6.003906 -6.269531 5.222656 -5.984375 4.203125 -5.984375 L 2.796875 -5.984375 L 2.796875 0 L 1 0 Z M 3.609375 -7.265625 C 4.140625 -7.265625 4.550781 -7.320312 4.84375 -7.4375 C 5.132812 -7.550781 5.34375 -7.75 5.46875 -8.03125 C 5.59375 -8.320312 5.65625 -8.738281 5.65625 -9.28125 C 5.65625 -9.9375 5.609375 -10.414062 5.515625 -10.71875 C 5.421875 -11.03125 5.234375 -11.25 4.953125 -11.375 C 4.671875 -11.5 4.226562 -11.5625 3.625 -11.5625 L 2.796875 -11.5625 L 2.796875 -7.265625 Z M 3.609375 -7.265625 "/></g></g></g><g fill="#000000" fill-opacity="1"><g transform="translate(220.995553, 298.889512)"><g><path d="M 1 -12.84375 L 5.984375 -12.84375 L 5.984375 -11.515625 L 2.796875 -11.515625 L 2.796875 -7.265625 L 5.375 -7.265625 L 5.375 -6 L 2.796875 -6 L 2.796875 -1.28125 L 6.015625 -1.28125 L 6.015625 0 L 1 0 Z M 1 -12.84375 "/></g></g></g><g fill="#000000" fill-opacity="1"><g transform="translate(227.448716, 298.889512)"><g><path d="M 1 -12.84375 L 3.578125 -12.84375 C 4.878906 -12.84375 5.832031 -12.578125 6.4375 -12.046875 C 7.050781 -11.515625 7.359375 -10.644531 7.359375 -9.4375 C 7.359375 -7.789062 6.828125 -6.789062 5.765625 -6.4375 L 7.59375 0 L 5.875 0 L 4.1875 -6.03125 L 2.796875 -6.03125 L 2.796875 0 L 1 0 Z M 3.46875 -7.3125 C 4.238281 -7.3125 4.789062 -7.460938 5.125 -7.765625 C 5.457031 -8.078125 5.625 -8.632812 5.625 -9.4375 C 5.625 -9.96875 5.566406 -10.382812 5.453125 -10.6875 C 5.335938 -10.988281 5.128906 -11.207031 4.828125 -11.34375 C 4.535156 -11.488281 4.117188 -11.5625 3.578125 -11.5625 L 2.796875 -11.5625 L 2.796875 -7.3125 Z M 3.46875 -7.3125 "/></g></g></g><path stroke-linecap="butt" transform="matrix(0.745205, 0, 0, 0.75, 59.193867, 293.300021)" fill="none" stroke-linejoin="miter" d="M 0.00193972 0.501014 L 68.449931 0.501014 " stroke="#000000" stroke-width="1" stroke-opacity="1" stroke-miterlimit="4"/><path stroke-linecap="butt" transform="matrix(0.745205, 0, 0, 0.75, 265.883572, 293.300021)" fill="none" stroke-linejoin="miter" d="M -0.00101897 0.501014 L 68.446972 0.501014 " stroke="#000000" stroke-width="1" stroke-opacity="1" stroke-miterlimit="4"/></svg>